%TF.GenerationSoftware,KiCad,Pcbnew,9.0.7*%
%TF.CreationDate,2026-03-02T22:20:35+05:30*%
%TF.ProjectId,DCmotorSpeedController,44436d6f-746f-4725-9370-656564436f6e,rev?*%
%TF.SameCoordinates,Original*%
%TF.FileFunction,Legend,Top*%
%TF.FilePolarity,Positive*%
%FSLAX46Y46*%
G04 Gerber Fmt 4.6, Leading zero omitted, Abs format (unit mm)*
G04 Created by KiCad (PCBNEW 9.0.7) date 2026-03-02 22:20:35*
%MOMM*%
%LPD*%
G01*
G04 APERTURE LIST*
%ADD10C,0.100000*%
%ADD11C,0.150000*%
%ADD12C,0.120000*%
G04 APERTURE END LIST*
D10*
X150741466Y-103946115D02*
X150741466Y-103184211D01*
X105377580Y-97553884D02*
X106377580Y-97553884D01*
X106377580Y-97553884D02*
X106377580Y-97791979D01*
X106377580Y-97791979D02*
X106329961Y-97934836D01*
X106329961Y-97934836D02*
X106234723Y-98030074D01*
X106234723Y-98030074D02*
X106139485Y-98077693D01*
X106139485Y-98077693D02*
X105949009Y-98125312D01*
X105949009Y-98125312D02*
X105806152Y-98125312D01*
X105806152Y-98125312D02*
X105615676Y-98077693D01*
X105615676Y-98077693D02*
X105520438Y-98030074D01*
X105520438Y-98030074D02*
X105425200Y-97934836D01*
X105425200Y-97934836D02*
X105377580Y-97791979D01*
X105377580Y-97791979D02*
X105377580Y-97553884D01*
X105472819Y-99125312D02*
X105425200Y-99077693D01*
X105425200Y-99077693D02*
X105377580Y-98934836D01*
X105377580Y-98934836D02*
X105377580Y-98839598D01*
X105377580Y-98839598D02*
X105425200Y-98696741D01*
X105425200Y-98696741D02*
X105520438Y-98601503D01*
X105520438Y-98601503D02*
X105615676Y-98553884D01*
X105615676Y-98553884D02*
X105806152Y-98506265D01*
X105806152Y-98506265D02*
X105949009Y-98506265D01*
X105949009Y-98506265D02*
X106139485Y-98553884D01*
X106139485Y-98553884D02*
X106234723Y-98601503D01*
X106234723Y-98601503D02*
X106329961Y-98696741D01*
X106329961Y-98696741D02*
X106377580Y-98839598D01*
X106377580Y-98839598D02*
X106377580Y-98934836D01*
X106377580Y-98934836D02*
X106329961Y-99077693D01*
X106329961Y-99077693D02*
X106282342Y-99125312D01*
X105377580Y-100315789D02*
X106377580Y-100315789D01*
X105377580Y-100791979D02*
X106377580Y-100791979D01*
X106377580Y-100791979D02*
X105377580Y-101363407D01*
X105377580Y-101363407D02*
X106377580Y-101363407D01*
X95553884Y-96241466D02*
X96315789Y-96241466D01*
X95934836Y-96622419D02*
X95934836Y-95860514D01*
X144244360Y-94372419D02*
X144434836Y-94372419D01*
X144434836Y-94372419D02*
X144530074Y-94420038D01*
X144530074Y-94420038D02*
X144625312Y-94515276D01*
X144625312Y-94515276D02*
X144672931Y-94705752D01*
X144672931Y-94705752D02*
X144672931Y-95039085D01*
X144672931Y-95039085D02*
X144625312Y-95229561D01*
X144625312Y-95229561D02*
X144530074Y-95324800D01*
X144530074Y-95324800D02*
X144434836Y-95372419D01*
X144434836Y-95372419D02*
X144244360Y-95372419D01*
X144244360Y-95372419D02*
X144149122Y-95324800D01*
X144149122Y-95324800D02*
X144053884Y-95229561D01*
X144053884Y-95229561D02*
X144006265Y-95039085D01*
X144006265Y-95039085D02*
X144006265Y-94705752D01*
X144006265Y-94705752D02*
X144053884Y-94515276D01*
X144053884Y-94515276D02*
X144149122Y-94420038D01*
X144149122Y-94420038D02*
X144244360Y-94372419D01*
X145530074Y-94705752D02*
X145530074Y-95372419D01*
X145101503Y-94705752D02*
X145101503Y-95229561D01*
X145101503Y-95229561D02*
X145149122Y-95324800D01*
X145149122Y-95324800D02*
X145244360Y-95372419D01*
X145244360Y-95372419D02*
X145387217Y-95372419D01*
X145387217Y-95372419D02*
X145482455Y-95324800D01*
X145482455Y-95324800D02*
X145530074Y-95277180D01*
X145863408Y-94705752D02*
X146244360Y-94705752D01*
X146006265Y-94372419D02*
X146006265Y-95229561D01*
X146006265Y-95229561D02*
X146053884Y-95324800D01*
X146053884Y-95324800D02*
X146149122Y-95372419D01*
X146149122Y-95372419D02*
X146244360Y-95372419D01*
X146577694Y-94705752D02*
X146577694Y-95705752D01*
X146577694Y-94753371D02*
X146672932Y-94705752D01*
X146672932Y-94705752D02*
X146863408Y-94705752D01*
X146863408Y-94705752D02*
X146958646Y-94753371D01*
X146958646Y-94753371D02*
X147006265Y-94800990D01*
X147006265Y-94800990D02*
X147053884Y-94896228D01*
X147053884Y-94896228D02*
X147053884Y-95181942D01*
X147053884Y-95181942D02*
X147006265Y-95277180D01*
X147006265Y-95277180D02*
X146958646Y-95324800D01*
X146958646Y-95324800D02*
X146863408Y-95372419D01*
X146863408Y-95372419D02*
X146672932Y-95372419D01*
X146672932Y-95372419D02*
X146577694Y-95324800D01*
X147911027Y-94705752D02*
X147911027Y-95372419D01*
X147482456Y-94705752D02*
X147482456Y-95229561D01*
X147482456Y-95229561D02*
X147530075Y-95324800D01*
X147530075Y-95324800D02*
X147625313Y-95372419D01*
X147625313Y-95372419D02*
X147768170Y-95372419D01*
X147768170Y-95372419D02*
X147863408Y-95324800D01*
X147863408Y-95324800D02*
X147911027Y-95277180D01*
X148244361Y-94705752D02*
X148625313Y-94705752D01*
X148387218Y-94372419D02*
X148387218Y-95229561D01*
X148387218Y-95229561D02*
X148434837Y-95324800D01*
X148434837Y-95324800D02*
X148530075Y-95372419D01*
X148530075Y-95372419D02*
X148625313Y-95372419D01*
X95991466Y-101446115D02*
X95991466Y-100684211D01*
X150303884Y-98741466D02*
X151065789Y-98741466D01*
X150684836Y-99122419D02*
X150684836Y-98360514D01*
D11*
X108954819Y-102916666D02*
X108478628Y-103249999D01*
X108954819Y-103488094D02*
X107954819Y-103488094D01*
X107954819Y-103488094D02*
X107954819Y-103107142D01*
X107954819Y-103107142D02*
X108002438Y-103011904D01*
X108002438Y-103011904D02*
X108050057Y-102964285D01*
X108050057Y-102964285D02*
X108145295Y-102916666D01*
X108145295Y-102916666D02*
X108288152Y-102916666D01*
X108288152Y-102916666D02*
X108383390Y-102964285D01*
X108383390Y-102964285D02*
X108431009Y-103011904D01*
X108431009Y-103011904D02*
X108478628Y-103107142D01*
X108478628Y-103107142D02*
X108478628Y-103488094D01*
X107954819Y-102583332D02*
X107954819Y-101964285D01*
X107954819Y-101964285D02*
X108335771Y-102297618D01*
X108335771Y-102297618D02*
X108335771Y-102154761D01*
X108335771Y-102154761D02*
X108383390Y-102059523D01*
X108383390Y-102059523D02*
X108431009Y-102011904D01*
X108431009Y-102011904D02*
X108526247Y-101964285D01*
X108526247Y-101964285D02*
X108764342Y-101964285D01*
X108764342Y-101964285D02*
X108859580Y-102011904D01*
X108859580Y-102011904D02*
X108907200Y-102059523D01*
X108907200Y-102059523D02*
X108954819Y-102154761D01*
X108954819Y-102154761D02*
X108954819Y-102440475D01*
X108954819Y-102440475D02*
X108907200Y-102535713D01*
X108907200Y-102535713D02*
X108859580Y-102583332D01*
X98011905Y-108704819D02*
X98011905Y-107704819D01*
X98011905Y-107704819D02*
X98250000Y-107704819D01*
X98250000Y-107704819D02*
X98392857Y-107752438D01*
X98392857Y-107752438D02*
X98488095Y-107847676D01*
X98488095Y-107847676D02*
X98535714Y-107942914D01*
X98535714Y-107942914D02*
X98583333Y-108133390D01*
X98583333Y-108133390D02*
X98583333Y-108276247D01*
X98583333Y-108276247D02*
X98535714Y-108466723D01*
X98535714Y-108466723D02*
X98488095Y-108561961D01*
X98488095Y-108561961D02*
X98392857Y-108657200D01*
X98392857Y-108657200D02*
X98250000Y-108704819D01*
X98250000Y-108704819D02*
X98011905Y-108704819D01*
X99440476Y-108038152D02*
X99440476Y-108704819D01*
X99202381Y-107657200D02*
X98964286Y-108371485D01*
X98964286Y-108371485D02*
X99583333Y-108371485D01*
X101954819Y-92833333D02*
X102669104Y-92833333D01*
X102669104Y-92833333D02*
X102811961Y-92880952D01*
X102811961Y-92880952D02*
X102907200Y-92976190D01*
X102907200Y-92976190D02*
X102954819Y-93119047D01*
X102954819Y-93119047D02*
X102954819Y-93214285D01*
X102954819Y-91833333D02*
X102954819Y-92404761D01*
X102954819Y-92119047D02*
X101954819Y-92119047D01*
X101954819Y-92119047D02*
X102097676Y-92214285D01*
X102097676Y-92214285D02*
X102192914Y-92309523D01*
X102192914Y-92309523D02*
X102240533Y-92404761D01*
X141609580Y-109166666D02*
X141657200Y-109214285D01*
X141657200Y-109214285D02*
X141704819Y-109357142D01*
X141704819Y-109357142D02*
X141704819Y-109452380D01*
X141704819Y-109452380D02*
X141657200Y-109595237D01*
X141657200Y-109595237D02*
X141561961Y-109690475D01*
X141561961Y-109690475D02*
X141466723Y-109738094D01*
X141466723Y-109738094D02*
X141276247Y-109785713D01*
X141276247Y-109785713D02*
X141133390Y-109785713D01*
X141133390Y-109785713D02*
X140942914Y-109738094D01*
X140942914Y-109738094D02*
X140847676Y-109690475D01*
X140847676Y-109690475D02*
X140752438Y-109595237D01*
X140752438Y-109595237D02*
X140704819Y-109452380D01*
X140704819Y-109452380D02*
X140704819Y-109357142D01*
X140704819Y-109357142D02*
X140752438Y-109214285D01*
X140752438Y-109214285D02*
X140800057Y-109166666D01*
X140800057Y-108785713D02*
X140752438Y-108738094D01*
X140752438Y-108738094D02*
X140704819Y-108642856D01*
X140704819Y-108642856D02*
X140704819Y-108404761D01*
X140704819Y-108404761D02*
X140752438Y-108309523D01*
X140752438Y-108309523D02*
X140800057Y-108261904D01*
X140800057Y-108261904D02*
X140895295Y-108214285D01*
X140895295Y-108214285D02*
X140990533Y-108214285D01*
X140990533Y-108214285D02*
X141133390Y-108261904D01*
X141133390Y-108261904D02*
X141704819Y-108833332D01*
X141704819Y-108833332D02*
X141704819Y-108214285D01*
X134333333Y-114109580D02*
X134285714Y-114157200D01*
X134285714Y-114157200D02*
X134142857Y-114204819D01*
X134142857Y-114204819D02*
X134047619Y-114204819D01*
X134047619Y-114204819D02*
X133904762Y-114157200D01*
X133904762Y-114157200D02*
X133809524Y-114061961D01*
X133809524Y-114061961D02*
X133761905Y-113966723D01*
X133761905Y-113966723D02*
X133714286Y-113776247D01*
X133714286Y-113776247D02*
X133714286Y-113633390D01*
X133714286Y-113633390D02*
X133761905Y-113442914D01*
X133761905Y-113442914D02*
X133809524Y-113347676D01*
X133809524Y-113347676D02*
X133904762Y-113252438D01*
X133904762Y-113252438D02*
X134047619Y-113204819D01*
X134047619Y-113204819D02*
X134142857Y-113204819D01*
X134142857Y-113204819D02*
X134285714Y-113252438D01*
X134285714Y-113252438D02*
X134333333Y-113300057D01*
X135285714Y-114204819D02*
X134714286Y-114204819D01*
X135000000Y-114204819D02*
X135000000Y-113204819D01*
X135000000Y-113204819D02*
X134904762Y-113347676D01*
X134904762Y-113347676D02*
X134809524Y-113442914D01*
X134809524Y-113442914D02*
X134714286Y-113490533D01*
X141674819Y-101738094D02*
X140674819Y-101738094D01*
X140674819Y-101738094D02*
X140674819Y-101499999D01*
X140674819Y-101499999D02*
X140722438Y-101357142D01*
X140722438Y-101357142D02*
X140817676Y-101261904D01*
X140817676Y-101261904D02*
X140912914Y-101214285D01*
X140912914Y-101214285D02*
X141103390Y-101166666D01*
X141103390Y-101166666D02*
X141246247Y-101166666D01*
X141246247Y-101166666D02*
X141436723Y-101214285D01*
X141436723Y-101214285D02*
X141531961Y-101261904D01*
X141531961Y-101261904D02*
X141627200Y-101357142D01*
X141627200Y-101357142D02*
X141674819Y-101499999D01*
X141674819Y-101499999D02*
X141674819Y-101738094D01*
X140674819Y-100833332D02*
X140674819Y-100214285D01*
X140674819Y-100214285D02*
X141055771Y-100547618D01*
X141055771Y-100547618D02*
X141055771Y-100404761D01*
X141055771Y-100404761D02*
X141103390Y-100309523D01*
X141103390Y-100309523D02*
X141151009Y-100261904D01*
X141151009Y-100261904D02*
X141246247Y-100214285D01*
X141246247Y-100214285D02*
X141484342Y-100214285D01*
X141484342Y-100214285D02*
X141579580Y-100261904D01*
X141579580Y-100261904D02*
X141627200Y-100309523D01*
X141627200Y-100309523D02*
X141674819Y-100404761D01*
X141674819Y-100404761D02*
X141674819Y-100690475D01*
X141674819Y-100690475D02*
X141627200Y-100785713D01*
X141627200Y-100785713D02*
X141579580Y-100833332D01*
X123454819Y-110916666D02*
X122978628Y-111249999D01*
X123454819Y-111488094D02*
X122454819Y-111488094D01*
X122454819Y-111488094D02*
X122454819Y-111107142D01*
X122454819Y-111107142D02*
X122502438Y-111011904D01*
X122502438Y-111011904D02*
X122550057Y-110964285D01*
X122550057Y-110964285D02*
X122645295Y-110916666D01*
X122645295Y-110916666D02*
X122788152Y-110916666D01*
X122788152Y-110916666D02*
X122883390Y-110964285D01*
X122883390Y-110964285D02*
X122931009Y-111011904D01*
X122931009Y-111011904D02*
X122978628Y-111107142D01*
X122978628Y-111107142D02*
X122978628Y-111488094D01*
X122550057Y-110535713D02*
X122502438Y-110488094D01*
X122502438Y-110488094D02*
X122454819Y-110392856D01*
X122454819Y-110392856D02*
X122454819Y-110154761D01*
X122454819Y-110154761D02*
X122502438Y-110059523D01*
X122502438Y-110059523D02*
X122550057Y-110011904D01*
X122550057Y-110011904D02*
X122645295Y-109964285D01*
X122645295Y-109964285D02*
X122740533Y-109964285D01*
X122740533Y-109964285D02*
X122883390Y-110011904D01*
X122883390Y-110011904D02*
X123454819Y-110583332D01*
X123454819Y-110583332D02*
X123454819Y-109964285D01*
X140694761Y-88280057D02*
X140599523Y-88232438D01*
X140599523Y-88232438D02*
X140504285Y-88137200D01*
X140504285Y-88137200D02*
X140361428Y-87994342D01*
X140361428Y-87994342D02*
X140266190Y-87946723D01*
X140266190Y-87946723D02*
X140170952Y-87946723D01*
X140218571Y-88184819D02*
X140123333Y-88137200D01*
X140123333Y-88137200D02*
X140028095Y-88041961D01*
X140028095Y-88041961D02*
X139980476Y-87851485D01*
X139980476Y-87851485D02*
X139980476Y-87518152D01*
X139980476Y-87518152D02*
X140028095Y-87327676D01*
X140028095Y-87327676D02*
X140123333Y-87232438D01*
X140123333Y-87232438D02*
X140218571Y-87184819D01*
X140218571Y-87184819D02*
X140409047Y-87184819D01*
X140409047Y-87184819D02*
X140504285Y-87232438D01*
X140504285Y-87232438D02*
X140599523Y-87327676D01*
X140599523Y-87327676D02*
X140647142Y-87518152D01*
X140647142Y-87518152D02*
X140647142Y-87851485D01*
X140647142Y-87851485D02*
X140599523Y-88041961D01*
X140599523Y-88041961D02*
X140504285Y-88137200D01*
X140504285Y-88137200D02*
X140409047Y-88184819D01*
X140409047Y-88184819D02*
X140218571Y-88184819D01*
X141599523Y-88184819D02*
X141028095Y-88184819D01*
X141313809Y-88184819D02*
X141313809Y-87184819D01*
X141313809Y-87184819D02*
X141218571Y-87327676D01*
X141218571Y-87327676D02*
X141123333Y-87422914D01*
X141123333Y-87422914D02*
X141028095Y-87470533D01*
X129178095Y-98504819D02*
X129178095Y-99314342D01*
X129178095Y-99314342D02*
X129225714Y-99409580D01*
X129225714Y-99409580D02*
X129273333Y-99457200D01*
X129273333Y-99457200D02*
X129368571Y-99504819D01*
X129368571Y-99504819D02*
X129559047Y-99504819D01*
X129559047Y-99504819D02*
X129654285Y-99457200D01*
X129654285Y-99457200D02*
X129701904Y-99409580D01*
X129701904Y-99409580D02*
X129749523Y-99314342D01*
X129749523Y-99314342D02*
X129749523Y-98504819D01*
X130749523Y-99504819D02*
X130178095Y-99504819D01*
X130463809Y-99504819D02*
X130463809Y-98504819D01*
X130463809Y-98504819D02*
X130368571Y-98647676D01*
X130368571Y-98647676D02*
X130273333Y-98742914D01*
X130273333Y-98742914D02*
X130178095Y-98790533D01*
X109833333Y-99609580D02*
X109785714Y-99657200D01*
X109785714Y-99657200D02*
X109642857Y-99704819D01*
X109642857Y-99704819D02*
X109547619Y-99704819D01*
X109547619Y-99704819D02*
X109404762Y-99657200D01*
X109404762Y-99657200D02*
X109309524Y-99561961D01*
X109309524Y-99561961D02*
X109261905Y-99466723D01*
X109261905Y-99466723D02*
X109214286Y-99276247D01*
X109214286Y-99276247D02*
X109214286Y-99133390D01*
X109214286Y-99133390D02*
X109261905Y-98942914D01*
X109261905Y-98942914D02*
X109309524Y-98847676D01*
X109309524Y-98847676D02*
X109404762Y-98752438D01*
X109404762Y-98752438D02*
X109547619Y-98704819D01*
X109547619Y-98704819D02*
X109642857Y-98704819D01*
X109642857Y-98704819D02*
X109785714Y-98752438D01*
X109785714Y-98752438D02*
X109833333Y-98800057D01*
X110166667Y-98704819D02*
X110785714Y-98704819D01*
X110785714Y-98704819D02*
X110452381Y-99085771D01*
X110452381Y-99085771D02*
X110595238Y-99085771D01*
X110595238Y-99085771D02*
X110690476Y-99133390D01*
X110690476Y-99133390D02*
X110738095Y-99181009D01*
X110738095Y-99181009D02*
X110785714Y-99276247D01*
X110785714Y-99276247D02*
X110785714Y-99514342D01*
X110785714Y-99514342D02*
X110738095Y-99609580D01*
X110738095Y-99609580D02*
X110690476Y-99657200D01*
X110690476Y-99657200D02*
X110595238Y-99704819D01*
X110595238Y-99704819D02*
X110309524Y-99704819D01*
X110309524Y-99704819D02*
X110214286Y-99657200D01*
X110214286Y-99657200D02*
X110166667Y-99609580D01*
X116004819Y-91345238D02*
X115528628Y-91678571D01*
X116004819Y-91916666D02*
X115004819Y-91916666D01*
X115004819Y-91916666D02*
X115004819Y-91535714D01*
X115004819Y-91535714D02*
X115052438Y-91440476D01*
X115052438Y-91440476D02*
X115100057Y-91392857D01*
X115100057Y-91392857D02*
X115195295Y-91345238D01*
X115195295Y-91345238D02*
X115338152Y-91345238D01*
X115338152Y-91345238D02*
X115433390Y-91392857D01*
X115433390Y-91392857D02*
X115481009Y-91440476D01*
X115481009Y-91440476D02*
X115528628Y-91535714D01*
X115528628Y-91535714D02*
X115528628Y-91916666D01*
X115004819Y-91059523D02*
X116004819Y-90726190D01*
X116004819Y-90726190D02*
X115004819Y-90392857D01*
X116004819Y-89535714D02*
X116004819Y-90107142D01*
X116004819Y-89821428D02*
X115004819Y-89821428D01*
X115004819Y-89821428D02*
X115147676Y-89916666D01*
X115147676Y-89916666D02*
X115242914Y-90011904D01*
X115242914Y-90011904D02*
X115290533Y-90107142D01*
X148666666Y-106954819D02*
X148666666Y-107669104D01*
X148666666Y-107669104D02*
X148619047Y-107811961D01*
X148619047Y-107811961D02*
X148523809Y-107907200D01*
X148523809Y-107907200D02*
X148380952Y-107954819D01*
X148380952Y-107954819D02*
X148285714Y-107954819D01*
X149095238Y-107050057D02*
X149142857Y-107002438D01*
X149142857Y-107002438D02*
X149238095Y-106954819D01*
X149238095Y-106954819D02*
X149476190Y-106954819D01*
X149476190Y-106954819D02*
X149571428Y-107002438D01*
X149571428Y-107002438D02*
X149619047Y-107050057D01*
X149619047Y-107050057D02*
X149666666Y-107145295D01*
X149666666Y-107145295D02*
X149666666Y-107240533D01*
X149666666Y-107240533D02*
X149619047Y-107383390D01*
X149619047Y-107383390D02*
X149047619Y-107954819D01*
X149047619Y-107954819D02*
X149666666Y-107954819D01*
X111704819Y-102976666D02*
X111228628Y-103309999D01*
X111704819Y-103548094D02*
X110704819Y-103548094D01*
X110704819Y-103548094D02*
X110704819Y-103167142D01*
X110704819Y-103167142D02*
X110752438Y-103071904D01*
X110752438Y-103071904D02*
X110800057Y-103024285D01*
X110800057Y-103024285D02*
X110895295Y-102976666D01*
X110895295Y-102976666D02*
X111038152Y-102976666D01*
X111038152Y-102976666D02*
X111133390Y-103024285D01*
X111133390Y-103024285D02*
X111181009Y-103071904D01*
X111181009Y-103071904D02*
X111228628Y-103167142D01*
X111228628Y-103167142D02*
X111228628Y-103548094D01*
X111704819Y-102024285D02*
X111704819Y-102595713D01*
X111704819Y-102309999D02*
X110704819Y-102309999D01*
X110704819Y-102309999D02*
X110847676Y-102405237D01*
X110847676Y-102405237D02*
X110942914Y-102500475D01*
X110942914Y-102500475D02*
X110990533Y-102595713D01*
X115454819Y-100238094D02*
X114454819Y-100238094D01*
X114454819Y-100238094D02*
X114454819Y-99999999D01*
X114454819Y-99999999D02*
X114502438Y-99857142D01*
X114502438Y-99857142D02*
X114597676Y-99761904D01*
X114597676Y-99761904D02*
X114692914Y-99714285D01*
X114692914Y-99714285D02*
X114883390Y-99666666D01*
X114883390Y-99666666D02*
X115026247Y-99666666D01*
X115026247Y-99666666D02*
X115216723Y-99714285D01*
X115216723Y-99714285D02*
X115311961Y-99761904D01*
X115311961Y-99761904D02*
X115407200Y-99857142D01*
X115407200Y-99857142D02*
X115454819Y-99999999D01*
X115454819Y-99999999D02*
X115454819Y-100238094D01*
X115454819Y-98714285D02*
X115454819Y-99285713D01*
X115454819Y-98999999D02*
X114454819Y-98999999D01*
X114454819Y-98999999D02*
X114597676Y-99095237D01*
X114597676Y-99095237D02*
X114692914Y-99190475D01*
X114692914Y-99190475D02*
X114740533Y-99285713D01*
D12*
%TO.C,R3*%
X107330000Y-106830000D02*
X107330000Y-110670000D01*
X107330000Y-110670000D02*
X109170000Y-110670000D01*
X108250000Y-105880000D02*
X108250000Y-106830000D01*
X108250000Y-111620000D02*
X108250000Y-110670000D01*
X109170000Y-106830000D02*
X107330000Y-106830000D01*
X109170000Y-110670000D02*
X109170000Y-106830000D01*
%TO.C,D4*%
X100670000Y-106705000D02*
X100670000Y-109795000D01*
X100670000Y-106705170D02*
G75*
G02*
X106220000Y-108250462I2560000J-1544830D01*
G01*
X106220000Y-108249538D02*
G75*
G02*
X100670000Y-109794830I-2990000J-462D01*
G01*
X105730000Y-108250000D02*
G75*
G02*
X100730000Y-108250000I-2500000J0D01*
G01*
X100730000Y-108250000D02*
G75*
G02*
X105730000Y-108250000I2500000J0D01*
G01*
%TO.C,J1*%
X96690000Y-93670000D02*
X96690000Y-103830000D01*
X96690000Y-103830000D02*
X104310000Y-103830000D01*
X103040000Y-93670000D02*
X103040000Y-103830000D01*
X104310000Y-93670000D02*
X96690000Y-93670000D01*
X104310000Y-103830000D02*
X104310000Y-93670000D01*
%TO.C,C2*%
X137130000Y-109030000D02*
X137130000Y-113970000D01*
X137445000Y-109030000D02*
X137130000Y-109030000D01*
X137445000Y-113970000D02*
X137130000Y-113970000D01*
X139870000Y-109030000D02*
X139555000Y-109030000D01*
X139870000Y-109030000D02*
X139870000Y-113970000D01*
X139870000Y-113970000D02*
X139555000Y-113970000D01*
%TO.C,C1*%
X127280000Y-112695000D02*
X127280000Y-112380000D01*
X127280000Y-115120000D02*
X127280000Y-114805000D01*
X132220000Y-112380000D02*
X127280000Y-112380000D01*
X132220000Y-112695000D02*
X132220000Y-112380000D01*
X132220000Y-115120000D02*
X127280000Y-115120000D01*
X132220000Y-115120000D02*
X132220000Y-114805000D01*
%TO.C,D3*%
X137280000Y-98280000D02*
X137280000Y-103720000D01*
X137280000Y-103720000D02*
X140220000Y-103720000D01*
X138750000Y-97260000D02*
X138750000Y-98280000D01*
X138750000Y-104740000D02*
X138750000Y-103720000D01*
X140220000Y-98280000D02*
X137280000Y-98280000D01*
X140220000Y-99060000D02*
X137280000Y-99060000D01*
X140220000Y-99180000D02*
X137280000Y-99180000D01*
X140220000Y-99300000D02*
X137280000Y-99300000D01*
X140220000Y-103720000D02*
X140220000Y-98280000D01*
%TO.C,R2*%
X122080000Y-102580000D02*
X122080000Y-106420000D01*
X122080000Y-106420000D02*
X123920000Y-106420000D01*
X123000000Y-101630000D02*
X123000000Y-102580000D01*
X123000000Y-107370000D02*
X123000000Y-106420000D01*
X123920000Y-102580000D02*
X122080000Y-102580000D01*
X123920000Y-106420000D02*
X123920000Y-102580000D01*
%TO.C,Q1*%
X135670000Y-88730000D02*
X135670000Y-93371000D01*
X135670000Y-88730000D02*
X145910000Y-88730000D01*
X135670000Y-90240000D02*
X145910000Y-90240000D01*
X135670000Y-93371000D02*
X145910000Y-93371000D01*
X138940000Y-88730000D02*
X138940000Y-90240000D01*
X142641000Y-88730000D02*
X142641000Y-90240000D01*
X145910000Y-88730000D02*
X145910000Y-93371000D01*
%TO.C,U1*%
X127290000Y-100050000D02*
X127290000Y-110330000D01*
X127290000Y-110330000D02*
X132590000Y-110330000D01*
X128940000Y-100050000D02*
X127290000Y-100050000D01*
X132590000Y-100050000D02*
X130940000Y-100050000D01*
X132590000Y-110330000D02*
X132590000Y-100050000D01*
X130940000Y-100050000D02*
G75*
G02*
X128940000Y-100050000I-1000000J0D01*
G01*
%TO.C,D2*%
X117530000Y-104530000D02*
X117530000Y-109970000D01*
X117530000Y-108950000D02*
X120470000Y-108950000D01*
X117530000Y-109070000D02*
X120470000Y-109070000D01*
X117530000Y-109190000D02*
X120470000Y-109190000D01*
X117530000Y-109970000D02*
X120470000Y-109970000D01*
X119000000Y-103510000D02*
X119000000Y-104530000D01*
X119000000Y-110990000D02*
X119000000Y-109970000D01*
X120470000Y-104530000D02*
X117530000Y-104530000D01*
X120470000Y-109970000D02*
X120470000Y-104530000D01*
%TO.C,C3*%
X108759000Y-93913323D02*
X105082000Y-93913323D01*
X108759000Y-93953323D02*
X105093000Y-93953323D01*
X108759000Y-93993323D02*
X105103000Y-93993323D01*
X108759000Y-94033323D02*
X105115000Y-94033323D01*
X108759000Y-94073323D02*
X105126000Y-94073323D01*
X108759000Y-94113323D02*
X105138000Y-94113323D01*
X108759000Y-94153323D02*
X105150000Y-94153323D01*
X108759000Y-94193323D02*
X105163000Y-94193323D01*
X108759000Y-94233323D02*
X105176000Y-94233323D01*
X108759000Y-94273323D02*
X105189000Y-94273323D01*
X108759000Y-94313323D02*
X105203000Y-94313323D01*
X108759000Y-94353323D02*
X105217000Y-94353323D01*
X108759000Y-94393323D02*
X105232000Y-94393323D01*
X108759000Y-94433323D02*
X105246000Y-94433323D01*
X108759000Y-94473323D02*
X105262000Y-94473323D01*
X108759000Y-94513323D02*
X105277000Y-94513323D01*
X108759000Y-94553323D02*
X105293000Y-94553323D01*
X108759000Y-94593323D02*
X105310000Y-94593323D01*
X108759000Y-94633323D02*
X105326000Y-94633323D01*
X108759000Y-94673323D02*
X105343000Y-94673323D01*
X108759000Y-94713323D02*
X105361000Y-94713323D01*
X108759000Y-94753323D02*
X105379000Y-94753323D01*
X108759000Y-94793323D02*
X105397000Y-94793323D01*
X108759000Y-94833323D02*
X105416000Y-94833323D01*
X108759000Y-94873323D02*
X105436000Y-94873323D01*
X108759000Y-94913323D02*
X105455000Y-94913323D01*
X108759000Y-94953323D02*
X105475000Y-94953323D01*
X108759000Y-94993323D02*
X105496000Y-94993323D01*
X108759000Y-95033323D02*
X105517000Y-95033323D01*
X108759000Y-95073323D02*
X105538000Y-95073323D01*
X108759000Y-95113323D02*
X105560000Y-95113323D01*
X108759000Y-95153323D02*
X105583000Y-95153323D01*
X108759000Y-95193323D02*
X105605000Y-95193323D01*
X108759000Y-95233323D02*
X105629000Y-95233323D01*
X108759000Y-95273323D02*
X105653000Y-95273323D01*
X108759000Y-95313323D02*
X105677000Y-95313323D01*
X108759000Y-95353323D02*
X105702000Y-95353323D01*
X108759000Y-95393323D02*
X105727000Y-95393323D01*
X108759000Y-95433323D02*
X105753000Y-95433323D01*
X108759000Y-95473323D02*
X105779000Y-95473323D01*
X108759000Y-95513323D02*
X105806000Y-95513323D01*
X108759000Y-95553323D02*
X105834000Y-95553323D01*
X108759000Y-95593323D02*
X105862000Y-95593323D01*
X108759000Y-95633323D02*
X105890000Y-95633323D01*
X108759000Y-95673323D02*
X105920000Y-95673323D01*
X108759000Y-95713323D02*
X105950000Y-95713323D01*
X108759000Y-95753323D02*
X105980000Y-95753323D01*
X108759000Y-95793323D02*
X106011000Y-95793323D01*
X108759000Y-95833323D02*
X106043000Y-95833323D01*
X108759000Y-95873323D02*
X106075000Y-95873323D01*
X108759000Y-95913323D02*
X106108000Y-95913323D01*
X108759000Y-95953323D02*
X106142000Y-95953323D01*
X108759000Y-95993323D02*
X106176000Y-95993323D01*
X108759000Y-96033323D02*
X106211000Y-96033323D01*
X108759000Y-96073323D02*
X106247000Y-96073323D01*
X108759000Y-96113323D02*
X106284000Y-96113323D01*
X108759000Y-96153323D02*
X106321000Y-96153323D01*
X108759000Y-96193323D02*
X106360000Y-96193323D01*
X108759000Y-96233323D02*
X106399000Y-96233323D01*
X108759000Y-96273323D02*
X106439000Y-96273323D01*
X108759000Y-96313323D02*
X106480000Y-96313323D01*
X108759000Y-96353323D02*
X106522000Y-96353323D01*
X110599000Y-97713323D02*
X109401000Y-97713323D01*
X110862000Y-97673323D02*
X109138000Y-97673323D01*
X111062000Y-97633323D02*
X108938000Y-97633323D01*
X111230000Y-97593323D02*
X108770000Y-97593323D01*
X111378000Y-97553323D02*
X108622000Y-97553323D01*
X111510000Y-97513323D02*
X108490000Y-97513323D01*
X111630000Y-97473323D02*
X108370000Y-97473323D01*
X111742000Y-97433323D02*
X108258000Y-97433323D01*
X111846000Y-97393323D02*
X108154000Y-97393323D01*
X111944000Y-97353323D02*
X108056000Y-97353323D01*
X112037000Y-97313323D02*
X107963000Y-97313323D01*
X112125000Y-97273323D02*
X107875000Y-97273323D01*
X112209000Y-97233323D02*
X107791000Y-97233323D01*
X112289000Y-97193323D02*
X107711000Y-97193323D01*
X112365000Y-97153323D02*
X107635000Y-97153323D01*
X112439000Y-97113323D02*
X107561000Y-97113323D01*
X112510000Y-97073323D02*
X107490000Y-97073323D01*
X112579000Y-97033323D02*
X107421000Y-97033323D01*
X112645000Y-96993323D02*
X107355000Y-96993323D01*
X112709000Y-96953323D02*
X107291000Y-96953323D01*
X112770000Y-96913323D02*
X107230000Y-96913323D01*
X112830000Y-96873323D02*
X107170000Y-96873323D01*
X112875000Y-87152677D02*
X112875000Y-88152677D01*
X112889000Y-96833323D02*
X107111000Y-96833323D01*
X112945000Y-96793323D02*
X107055000Y-96793323D01*
X113000000Y-96753323D02*
X107000000Y-96753323D01*
X113054000Y-96713323D02*
X106946000Y-96713323D01*
X113106000Y-96673323D02*
X106894000Y-96673323D01*
X113156000Y-96633323D02*
X106844000Y-96633323D01*
X113206000Y-96593323D02*
X106794000Y-96593323D01*
X113254000Y-96553323D02*
X106746000Y-96553323D01*
X113301000Y-96513323D02*
X106699000Y-96513323D01*
X113347000Y-96473323D02*
X106653000Y-96473323D01*
X113375000Y-87652677D02*
X112375000Y-87652677D01*
X113392000Y-96433323D02*
X106608000Y-96433323D01*
X113436000Y-96393323D02*
X106564000Y-96393323D01*
X113478000Y-96353323D02*
X111241000Y-96353323D01*
X113520000Y-96313323D02*
X111241000Y-96313323D01*
X113561000Y-96273323D02*
X111241000Y-96273323D01*
X113601000Y-96233323D02*
X111241000Y-96233323D01*
X113640000Y-96193323D02*
X111241000Y-96193323D01*
X113679000Y-96153323D02*
X111241000Y-96153323D01*
X113716000Y-96113323D02*
X111241000Y-96113323D01*
X113753000Y-96073323D02*
X111241000Y-96073323D01*
X113789000Y-96033323D02*
X111241000Y-96033323D01*
X113824000Y-95993323D02*
X111241000Y-95993323D01*
X113858000Y-95953323D02*
X111241000Y-95953323D01*
X113892000Y-95913323D02*
X111241000Y-95913323D01*
X113925000Y-95873323D02*
X111241000Y-95873323D01*
X113957000Y-95833323D02*
X111241000Y-95833323D01*
X113989000Y-95793323D02*
X111241000Y-95793323D01*
X114020000Y-95753323D02*
X111241000Y-95753323D01*
X114050000Y-95713323D02*
X111241000Y-95713323D01*
X114080000Y-95673323D02*
X111241000Y-95673323D01*
X114110000Y-95633323D02*
X111241000Y-95633323D01*
X114138000Y-95593323D02*
X111241000Y-95593323D01*
X114166000Y-95553323D02*
X111241000Y-95553323D01*
X114194000Y-95513323D02*
X111241000Y-95513323D01*
X114221000Y-95473323D02*
X111241000Y-95473323D01*
X114247000Y-95433323D02*
X111241000Y-95433323D01*
X114273000Y-95393323D02*
X111241000Y-95393323D01*
X114298000Y-95353323D02*
X111241000Y-95353323D01*
X114323000Y-95313323D02*
X111241000Y-95313323D01*
X114347000Y-95273323D02*
X111241000Y-95273323D01*
X114371000Y-95233323D02*
X111241000Y-95233323D01*
X114395000Y-95193323D02*
X111241000Y-95193323D01*
X114417000Y-95153323D02*
X111241000Y-95153323D01*
X114440000Y-95113323D02*
X111241000Y-95113323D01*
X114462000Y-95073323D02*
X111241000Y-95073323D01*
X114483000Y-95033323D02*
X111241000Y-95033323D01*
X114504000Y-94993323D02*
X111241000Y-94993323D01*
X114525000Y-94953323D02*
X111241000Y-94953323D01*
X114545000Y-94913323D02*
X111241000Y-94913323D01*
X114564000Y-94873323D02*
X111241000Y-94873323D01*
X114584000Y-94833323D02*
X111241000Y-94833323D01*
X114603000Y-94793323D02*
X111241000Y-94793323D01*
X114621000Y-94753323D02*
X111241000Y-94753323D01*
X114639000Y-94713323D02*
X111241000Y-94713323D01*
X114657000Y-94673323D02*
X111241000Y-94673323D01*
X114674000Y-94633323D02*
X111241000Y-94633323D01*
X114690000Y-94593323D02*
X111241000Y-94593323D01*
X114707000Y-94553323D02*
X111241000Y-94553323D01*
X114723000Y-94513323D02*
X111241000Y-94513323D01*
X114738000Y-94473323D02*
X111241000Y-94473323D01*
X114754000Y-94433323D02*
X111241000Y-94433323D01*
X114768000Y-94393323D02*
X111241000Y-94393323D01*
X114783000Y-94353323D02*
X111241000Y-94353323D01*
X114797000Y-94313323D02*
X111241000Y-94313323D01*
X114811000Y-94273323D02*
X111241000Y-94273323D01*
X114824000Y-94233323D02*
X111241000Y-94233323D01*
X114837000Y-94193323D02*
X111241000Y-94193323D01*
X114850000Y-94153323D02*
X111241000Y-94153323D01*
X114862000Y-94113323D02*
X111241000Y-94113323D01*
X114874000Y-94073323D02*
X111241000Y-94073323D01*
X114885000Y-94033323D02*
X111241000Y-94033323D01*
X114897000Y-93993323D02*
X111241000Y-93993323D01*
X114907000Y-93953323D02*
X111241000Y-93953323D01*
X114918000Y-93913323D02*
X111241000Y-93913323D01*
X114928000Y-93873323D02*
X105072000Y-93873323D01*
X114938000Y-93833323D02*
X105062000Y-93833323D01*
X114947000Y-93793323D02*
X105053000Y-93793323D01*
X114956000Y-93753323D02*
X105044000Y-93753323D01*
X114965000Y-93713323D02*
X105035000Y-93713323D01*
X114974000Y-93673323D02*
X105026000Y-93673323D01*
X114982000Y-93633323D02*
X105018000Y-93633323D01*
X114990000Y-93593323D02*
X105010000Y-93593323D01*
X114997000Y-93553323D02*
X105003000Y-93553323D01*
X115004000Y-93513323D02*
X104996000Y-93513323D01*
X115011000Y-93473323D02*
X104989000Y-93473323D01*
X115018000Y-93433323D02*
X104982000Y-93433323D01*
X115024000Y-93393323D02*
X104976000Y-93393323D01*
X115030000Y-93353323D02*
X104970000Y-93353323D01*
X115035000Y-93312323D02*
X104965000Y-93312323D01*
X115040000Y-93272323D02*
X104960000Y-93272323D01*
X115045000Y-93232323D02*
X104955000Y-93232323D01*
X115050000Y-93192323D02*
X104950000Y-93192323D01*
X115054000Y-93152323D02*
X104946000Y-93152323D01*
X115058000Y-93112323D02*
X104942000Y-93112323D01*
X115062000Y-93072323D02*
X104938000Y-93072323D01*
X115065000Y-93032323D02*
X104935000Y-93032323D01*
X115068000Y-92992323D02*
X104932000Y-92992323D01*
X115070000Y-92952323D02*
X104930000Y-92952323D01*
X115073000Y-92912323D02*
X104927000Y-92912323D01*
X115075000Y-92872323D02*
X104925000Y-92872323D01*
X115077000Y-92832323D02*
X104923000Y-92832323D01*
X115078000Y-92792323D02*
X104922000Y-92792323D01*
X115079000Y-92752323D02*
X104921000Y-92752323D01*
X115080000Y-92632323D02*
X104920000Y-92632323D01*
X115080000Y-92672323D02*
X104920000Y-92672323D01*
X115080000Y-92712323D02*
X104920000Y-92712323D01*
X115120000Y-92632323D02*
G75*
G02*
X104880000Y-92632323I-5120000J0D01*
G01*
X104880000Y-92632323D02*
G75*
G02*
X115120000Y-92632323I5120000J0D01*
G01*
%TO.C,RV1*%
X116680000Y-86830000D02*
X134820000Y-86830000D01*
X116680000Y-97570000D02*
X116680000Y-86830000D01*
X116680000Y-97570000D02*
X134820000Y-97570000D01*
X122130000Y-81830000D02*
X129370000Y-81830000D01*
X122130000Y-86830000D02*
X122130000Y-81830000D01*
X122630000Y-71830000D02*
X128870000Y-71830000D01*
X122630000Y-81830000D02*
X122630000Y-71830000D01*
X128870000Y-81830000D02*
X128870000Y-71830000D01*
X129370000Y-86830000D02*
X129370000Y-81830000D01*
X134820000Y-97570000D02*
X134820000Y-86830000D01*
%TO.C,J2*%
X142440000Y-96130000D02*
X142440000Y-106290000D01*
X142440000Y-106290000D02*
X150060000Y-106290000D01*
X143710000Y-106290000D02*
X143710000Y-96130000D01*
X150060000Y-96130000D02*
X142440000Y-96130000D01*
X150060000Y-106290000D02*
X150060000Y-96130000D01*
%TO.C,R1*%
X110330000Y-106830000D02*
X110330000Y-110670000D01*
X110330000Y-110670000D02*
X112170000Y-110670000D01*
X111250000Y-105880000D02*
X111250000Y-106830000D01*
X111250000Y-111620000D02*
X111250000Y-110670000D01*
X112170000Y-106830000D02*
X110330000Y-106830000D01*
X112170000Y-110670000D02*
X112170000Y-106830000D01*
%TO.C,D1*%
X113530000Y-104530000D02*
X113530000Y-109970000D01*
X113530000Y-109970000D02*
X116470000Y-109970000D01*
X115000000Y-103510000D02*
X115000000Y-104530000D01*
X115000000Y-110990000D02*
X115000000Y-109970000D01*
X116470000Y-104530000D02*
X113530000Y-104530000D01*
X116470000Y-105310000D02*
X113530000Y-105310000D01*
X116470000Y-105430000D02*
X113530000Y-105430000D01*
X116470000Y-105550000D02*
X113530000Y-105550000D01*
X116470000Y-109970000D02*
X116470000Y-104530000D01*
%TD*%
M02*
