%TF.GenerationSoftware,KiCad,Pcbnew,9.0.7*%
%TF.CreationDate,2026-03-02T22:20:35+05:30*%
%TF.ProjectId,DCmotorSpeedController,44436d6f-746f-4725-9370-656564436f6e,rev?*%
%TF.SameCoordinates,Original*%
%TF.FileFunction,Copper,L1,Top*%
%TF.FilePolarity,Positive*%
%FSLAX46Y46*%
G04 Gerber Fmt 4.6, Leading zero omitted, Abs format (unit mm)*
G04 Created by KiCad (PCBNEW 9.0.7) date 2026-03-02 22:20:35*
%MOMM*%
%LPD*%
G01*
G04 APERTURE LIST*
%TA.AperFunction,ComponentPad*%
%ADD10C,1.400000*%
%TD*%
%TA.AperFunction,ComponentPad*%
%ADD11O,1.400000X1.400000*%
%TD*%
%TA.AperFunction,ComponentPad*%
%ADD12R,1.800000X1.800000*%
%TD*%
%TA.AperFunction,ComponentPad*%
%ADD13C,1.800000*%
%TD*%
%TA.AperFunction,ComponentPad*%
%ADD14C,3.800000*%
%TD*%
%TA.AperFunction,ComponentPad*%
%ADD15R,3.000000X3.000000*%
%TD*%
%TA.AperFunction,ComponentPad*%
%ADD16C,3.000000*%
%TD*%
%TA.AperFunction,ComponentPad*%
%ADD17C,1.600000*%
%TD*%
%TA.AperFunction,ComponentPad*%
%ADD18R,2.200000X2.200000*%
%TD*%
%TA.AperFunction,ComponentPad*%
%ADD19O,2.200000X2.200000*%
%TD*%
%TA.AperFunction,ComponentPad*%
%ADD20R,1.905000X2.000000*%
%TD*%
%TA.AperFunction,ComponentPad*%
%ADD21O,1.905000X2.000000*%
%TD*%
%TA.AperFunction,ComponentPad*%
%ADD22R,1.600000X1.600000*%
%TD*%
%TA.AperFunction,ComponentPad*%
%ADD23O,1.600000X1.600000*%
%TD*%
%TA.AperFunction,ComponentPad*%
%ADD24R,2.000000X2.000000*%
%TD*%
%TA.AperFunction,ComponentPad*%
%ADD25C,2.000000*%
%TD*%
%TA.AperFunction,ViaPad*%
%ADD26C,0.600000*%
%TD*%
%TA.AperFunction,Conductor*%
%ADD27C,0.500000*%
%TD*%
G04 APERTURE END LIST*
D10*
%TO.P,R3,1*%
%TO.N,Net-(D3-K)*%
X108250000Y-104940000D03*
D11*
%TO.P,R3,2*%
%TO.N,Net-(D4-A)*%
X108250000Y-112560000D03*
%TD*%
D12*
%TO.P,D4,1,K*%
%TO.N,GND*%
X101960000Y-108250000D03*
D13*
%TO.P,D4,2,A*%
%TO.N,Net-(D4-A)*%
X104500000Y-108250000D03*
%TD*%
D14*
%TO.P,REF\u002A\u002A,1*%
%TO.N,N/C*%
X98000000Y-113000000D03*
%TD*%
%TO.P,REF\u002A\u002A,1*%
%TO.N,N/C*%
X98000000Y-89500000D03*
%TD*%
D15*
%TO.P,J1,1,Pin_1*%
%TO.N,GND*%
X100500000Y-101290000D03*
D16*
%TO.P,J1,2,Pin_2*%
%TO.N,Net-(D3-K)*%
X100500000Y-96210000D03*
%TD*%
D17*
%TO.P,C2,1*%
%TO.N,Net-(U1-CV)*%
X138500000Y-109000000D03*
%TO.P,C2,2*%
%TO.N,GND*%
X138500000Y-114000000D03*
%TD*%
%TO.P,C1,1*%
%TO.N,Net-(U1-THR)*%
X132250000Y-113750000D03*
%TO.P,C1,2*%
%TO.N,GND*%
X127250000Y-113750000D03*
%TD*%
D18*
%TO.P,D3,1,K*%
%TO.N,Net-(D3-K)*%
X138750000Y-95920000D03*
D19*
%TO.P,D3,2,A*%
%TO.N,Net-(D3-A)*%
X138750000Y-106080000D03*
%TD*%
D10*
%TO.P,R2,1*%
%TO.N,Net-(U1-Q)*%
X123000000Y-108310000D03*
D11*
%TO.P,R2,2*%
%TO.N,Net-(Q1-B)*%
X123000000Y-100690000D03*
%TD*%
D20*
%TO.P,Q1,1,B*%
%TO.N,Net-(Q1-B)*%
X138250000Y-92000000D03*
D21*
%TO.P,Q1,2,C*%
%TO.N,Net-(D3-A)*%
X140790000Y-92000000D03*
%TO.P,Q1,3,E*%
%TO.N,GND*%
X143330000Y-92000000D03*
%TD*%
D22*
%TO.P,U1,1,GND*%
%TO.N,GND*%
X126130000Y-101380000D03*
D23*
%TO.P,U1,2,TR*%
%TO.N,Net-(U1-THR)*%
X126130000Y-103920000D03*
%TO.P,U1,3,Q*%
%TO.N,Net-(U1-Q)*%
X126130000Y-106460000D03*
%TO.P,U1,4,R*%
%TO.N,Net-(D3-K)*%
X126130000Y-109000000D03*
%TO.P,U1,5,CV*%
%TO.N,Net-(U1-CV)*%
X133750000Y-109000000D03*
%TO.P,U1,6,THR*%
%TO.N,Net-(U1-THR)*%
X133750000Y-106460000D03*
%TO.P,U1,7,DIS*%
%TO.N,Net-(D1-A)*%
X133750000Y-103920000D03*
%TO.P,U1,8,VCC*%
%TO.N,Net-(D3-K)*%
X133750000Y-101380000D03*
%TD*%
D18*
%TO.P,D2,1,K*%
%TO.N,Net-(D1-A)*%
X119000000Y-112330000D03*
D19*
%TO.P,D2,2,A*%
%TO.N,Net-(D2-A)*%
X119000000Y-102170000D03*
%TD*%
D24*
%TO.P,C3,1*%
%TO.N,Net-(D3-K)*%
X110000000Y-90132323D03*
D25*
%TO.P,C3,2*%
%TO.N,GND*%
X110000000Y-95132323D03*
%TD*%
D15*
%TO.P,RV1,1,1*%
%TO.N,Net-(D2-A)*%
X130750000Y-90750000D03*
D16*
%TO.P,RV1,2,2*%
%TO.N,Net-(U1-THR)*%
X125750000Y-90750000D03*
%TO.P,RV1,3,3*%
%TO.N,Net-(D1-K)*%
X120750000Y-90750000D03*
%TD*%
D15*
%TO.P,J2,1,Pin_1*%
%TO.N,Net-(D3-K)*%
X146250000Y-98670000D03*
D16*
%TO.P,J2,2,Pin_2*%
%TO.N,Net-(D3-A)*%
X146250000Y-103750000D03*
%TD*%
D10*
%TO.P,R1,1*%
%TO.N,Net-(D3-K)*%
X111250000Y-104940000D03*
D11*
%TO.P,R1,2*%
%TO.N,Net-(D1-A)*%
X111250000Y-112560000D03*
%TD*%
D14*
%TO.P,REF\u002A\u002A,1*%
%TO.N,N/C*%
X149000000Y-113000000D03*
%TD*%
%TO.P,REF\u002A\u002A,1*%
%TO.N,N/C*%
X148750000Y-89750000D03*
%TD*%
D18*
%TO.P,D1,1,K*%
%TO.N,Net-(D1-K)*%
X115000000Y-102170000D03*
D19*
%TO.P,D1,2,A*%
%TO.N,Net-(D1-A)*%
X115000000Y-112330000D03*
%TD*%
D26*
%TO.N,Net-(U1-THR)*%
X136500000Y-107000000D03*
X135500000Y-113000000D03*
X119250000Y-93500000D03*
X117000000Y-103250000D03*
%TD*%
D27*
%TO.N,Net-(U1-THR)*%
X136500000Y-112000000D02*
X135500000Y-113000000D01*
X136500000Y-107000000D02*
X136500000Y-112000000D01*
X117000000Y-95750000D02*
X119250000Y-93500000D01*
X117000000Y-103250000D02*
X117000000Y-95750000D01*
X131460000Y-106460000D02*
X128920000Y-103920000D01*
X133750000Y-106460000D02*
X131460000Y-106460000D01*
X128920000Y-103920000D02*
X126130000Y-103920000D01*
%TD*%
%TA.AperFunction,Conductor*%
%TO.N,GND*%
G36*
X147962293Y-87270185D02*
G01*
X148008048Y-87322989D01*
X148017992Y-87392147D01*
X147988967Y-87455703D01*
X147936209Y-87491541D01*
X147829917Y-87528734D01*
X147587005Y-87645714D01*
X147358712Y-87789161D01*
X147147915Y-87957265D01*
X146957265Y-88147915D01*
X146789161Y-88358712D01*
X146645714Y-88587005D01*
X146528734Y-88829917D01*
X146439687Y-89084397D01*
X146439684Y-89084405D01*
X146379688Y-89347268D01*
X146379686Y-89347280D01*
X146349500Y-89615186D01*
X146349500Y-89884813D01*
X146379686Y-90152719D01*
X146379688Y-90152731D01*
X146439684Y-90415594D01*
X146439687Y-90415602D01*
X146528734Y-90670082D01*
X146645714Y-90912994D01*
X146645716Y-90912997D01*
X146789162Y-91141289D01*
X146957266Y-91352085D01*
X147147915Y-91542734D01*
X147358711Y-91710838D01*
X147517029Y-91810316D01*
X147587005Y-91854285D01*
X147620288Y-91870313D01*
X147829921Y-91971267D01*
X148021049Y-92038145D01*
X148084397Y-92060312D01*
X148084405Y-92060315D01*
X148084408Y-92060315D01*
X148084409Y-92060316D01*
X148347268Y-92120312D01*
X148615187Y-92150499D01*
X148615188Y-92150500D01*
X148615191Y-92150500D01*
X148884812Y-92150500D01*
X148884812Y-92150499D01*
X149152732Y-92120312D01*
X149415591Y-92060316D01*
X149670079Y-91971267D01*
X149912997Y-91854284D01*
X150141289Y-91710838D01*
X150352085Y-91542734D01*
X150542734Y-91352085D01*
X150710838Y-91141289D01*
X150854284Y-90912997D01*
X150971267Y-90670079D01*
X151008460Y-90563787D01*
X151049180Y-90507014D01*
X151114133Y-90481267D01*
X151182695Y-90494723D01*
X151233097Y-90543111D01*
X151249500Y-90604745D01*
X151249500Y-111637699D01*
X151229815Y-111704738D01*
X151177011Y-111750493D01*
X151107853Y-111760437D01*
X151044297Y-111731412D01*
X151020506Y-111703671D01*
X150996749Y-111665863D01*
X150960838Y-111608711D01*
X150792734Y-111397915D01*
X150602085Y-111207266D01*
X150391289Y-111039162D01*
X150162997Y-110895716D01*
X150162994Y-110895714D01*
X149920082Y-110778734D01*
X149665602Y-110689687D01*
X149665594Y-110689684D01*
X149468446Y-110644687D01*
X149402732Y-110629688D01*
X149402728Y-110629687D01*
X149402719Y-110629686D01*
X149134813Y-110599500D01*
X149134809Y-110599500D01*
X148865191Y-110599500D01*
X148865186Y-110599500D01*
X148597280Y-110629686D01*
X148597268Y-110629688D01*
X148334405Y-110689684D01*
X148334397Y-110689687D01*
X148079917Y-110778734D01*
X147837005Y-110895714D01*
X147608712Y-111039161D01*
X147397915Y-111207265D01*
X147207265Y-111397915D01*
X147039161Y-111608712D01*
X146895714Y-111837005D01*
X146778734Y-112079917D01*
X146689687Y-112334397D01*
X146689684Y-112334405D01*
X146629688Y-112597268D01*
X146629686Y-112597280D01*
X146599500Y-112865186D01*
X146599500Y-113134813D01*
X146629686Y-113402719D01*
X146629687Y-113402728D01*
X146629688Y-113402732D01*
X146639442Y-113445465D01*
X146689684Y-113665594D01*
X146689687Y-113665602D01*
X146778734Y-113920082D01*
X146895714Y-114162994D01*
X146895716Y-114162997D01*
X147039162Y-114391289D01*
X147207266Y-114602085D01*
X147397915Y-114792734D01*
X147608711Y-114960838D01*
X147683083Y-115007569D01*
X147703672Y-115020506D01*
X147749963Y-115072841D01*
X147760611Y-115141894D01*
X147732236Y-115205743D01*
X147673847Y-115244115D01*
X147637700Y-115249500D01*
X139346683Y-115249500D01*
X139279644Y-115229815D01*
X139233889Y-115177011D01*
X139223065Y-115115771D01*
X139225921Y-115079473D01*
X138546447Y-114400000D01*
X138552661Y-114400000D01*
X138654394Y-114372741D01*
X138745606Y-114320080D01*
X138820080Y-114245606D01*
X138872741Y-114154394D01*
X138900000Y-114052661D01*
X138900000Y-114046447D01*
X139579474Y-114725921D01*
X139611859Y-114681349D01*
X139704755Y-114499031D01*
X139767990Y-114304417D01*
X139800000Y-114102317D01*
X139800000Y-113897682D01*
X139767990Y-113695582D01*
X139704755Y-113500968D01*
X139611859Y-113318650D01*
X139579474Y-113274077D01*
X139579474Y-113274076D01*
X138900000Y-113953551D01*
X138900000Y-113947339D01*
X138872741Y-113845606D01*
X138820080Y-113754394D01*
X138745606Y-113679920D01*
X138654394Y-113627259D01*
X138552661Y-113600000D01*
X138546446Y-113600000D01*
X139225922Y-112920524D01*
X139225921Y-112920523D01*
X139181359Y-112888147D01*
X139181350Y-112888141D01*
X138999031Y-112795244D01*
X138804417Y-112732009D01*
X138602317Y-112700000D01*
X138397683Y-112700000D01*
X138195582Y-112732009D01*
X138000968Y-112795244D01*
X137818644Y-112888143D01*
X137774077Y-112920523D01*
X137774077Y-112920524D01*
X138453554Y-113600000D01*
X138447339Y-113600000D01*
X138345606Y-113627259D01*
X138254394Y-113679920D01*
X138179920Y-113754394D01*
X138127259Y-113845606D01*
X138100000Y-113947339D01*
X138100000Y-113953553D01*
X137420524Y-113274077D01*
X137420523Y-113274077D01*
X137388143Y-113318644D01*
X137295244Y-113500968D01*
X137232009Y-113695582D01*
X137200000Y-113897682D01*
X137200000Y-114102317D01*
X137232009Y-114304417D01*
X137295244Y-114499031D01*
X137388141Y-114681350D01*
X137388147Y-114681359D01*
X137420523Y-114725921D01*
X137420524Y-114725922D01*
X138100000Y-114046446D01*
X138100000Y-114052661D01*
X138127259Y-114154394D01*
X138179920Y-114245606D01*
X138254394Y-114320080D01*
X138345606Y-114372741D01*
X138447339Y-114400000D01*
X138453553Y-114400000D01*
X137774077Y-115079473D01*
X137776934Y-115115771D01*
X137762570Y-115184148D01*
X137713519Y-115233905D01*
X137653316Y-115249500D01*
X132626425Y-115249500D01*
X132559386Y-115229815D01*
X132513631Y-115177011D01*
X132503687Y-115107853D01*
X132532712Y-115044297D01*
X132588106Y-115007569D01*
X132624669Y-114995688D01*
X132749219Y-114955220D01*
X132931610Y-114862287D01*
X133027342Y-114792734D01*
X133097213Y-114741971D01*
X133097215Y-114741968D01*
X133097219Y-114741966D01*
X133241966Y-114597219D01*
X133241968Y-114597215D01*
X133241971Y-114597213D01*
X133313303Y-114499031D01*
X133362287Y-114431610D01*
X133455220Y-114249219D01*
X133518477Y-114054534D01*
X133550500Y-113852352D01*
X133550500Y-113647648D01*
X133535160Y-113550794D01*
X133518477Y-113445465D01*
X133477270Y-113318644D01*
X133455220Y-113250781D01*
X133455218Y-113250778D01*
X133455218Y-113250776D01*
X133396129Y-113134809D01*
X133362287Y-113068390D01*
X133330092Y-113024077D01*
X133303846Y-112987951D01*
X133255315Y-112921153D01*
X134699500Y-112921153D01*
X134699500Y-113078846D01*
X134730261Y-113233489D01*
X134730264Y-113233501D01*
X134790602Y-113379172D01*
X134790609Y-113379185D01*
X134878210Y-113510288D01*
X134878213Y-113510292D01*
X134989707Y-113621786D01*
X134989711Y-113621789D01*
X135120814Y-113709390D01*
X135120827Y-113709397D01*
X135266498Y-113769735D01*
X135266503Y-113769737D01*
X135421153Y-113800499D01*
X135421156Y-113800500D01*
X135421158Y-113800500D01*
X135578844Y-113800500D01*
X135578845Y-113800499D01*
X135643976Y-113787544D01*
X135726144Y-113771200D01*
X135726149Y-113771199D01*
X135731022Y-113770229D01*
X135733497Y-113769737D01*
X135879179Y-113709394D01*
X136010289Y-113621789D01*
X136121789Y-113510289D01*
X136209394Y-113379179D01*
X136219191Y-113355524D01*
X136246069Y-113315297D01*
X137082952Y-112478415D01*
X137113847Y-112432176D01*
X137144954Y-112385622D01*
X137150700Y-112377021D01*
X137165084Y-112355495D01*
X137218501Y-112226535D01*
X137221659Y-112218912D01*
X137250500Y-112073917D01*
X137250500Y-111926082D01*
X137250500Y-109874386D01*
X137270185Y-109807347D01*
X137322989Y-109761592D01*
X137392147Y-109751648D01*
X137455703Y-109780673D01*
X137474819Y-109801502D01*
X137508030Y-109847215D01*
X137652786Y-109991971D01*
X137807749Y-110104556D01*
X137818390Y-110112287D01*
X137934607Y-110171503D01*
X138000776Y-110205218D01*
X138000778Y-110205218D01*
X138000781Y-110205220D01*
X138105137Y-110239127D01*
X138195465Y-110268477D01*
X138296557Y-110284488D01*
X138397648Y-110300500D01*
X138397649Y-110300500D01*
X138602351Y-110300500D01*
X138602352Y-110300500D01*
X138804534Y-110268477D01*
X138999219Y-110205220D01*
X139181610Y-110112287D01*
X139274590Y-110044732D01*
X139347213Y-109991971D01*
X139347215Y-109991968D01*
X139347219Y-109991966D01*
X139491966Y-109847219D01*
X139491968Y-109847215D01*
X139491971Y-109847213D01*
X139561402Y-109751648D01*
X139612287Y-109681610D01*
X139705220Y-109499219D01*
X139768477Y-109304534D01*
X139800500Y-109102352D01*
X139800500Y-108897648D01*
X139768477Y-108695466D01*
X139705220Y-108500781D01*
X139705218Y-108500778D01*
X139705218Y-108500776D01*
X139656155Y-108404486D01*
X139612287Y-108318390D01*
X139604556Y-108307749D01*
X139491971Y-108152786D01*
X139347213Y-108008028D01*
X139181614Y-107887715D01*
X139176247Y-107884980D01*
X139130663Y-107861754D01*
X139079868Y-107813781D01*
X139063073Y-107745960D01*
X139085610Y-107679825D01*
X139140325Y-107636373D01*
X139148641Y-107633339D01*
X139191186Y-107619515D01*
X139364379Y-107563241D01*
X139588845Y-107448870D01*
X139792656Y-107300793D01*
X139970793Y-107122656D01*
X140118870Y-106918845D01*
X140233241Y-106694379D01*
X140311090Y-106454785D01*
X140350500Y-106205962D01*
X140350500Y-105954038D01*
X140311090Y-105705215D01*
X140233241Y-105465621D01*
X140233239Y-105465618D01*
X140233239Y-105465616D01*
X140149100Y-105300485D01*
X140118870Y-105241155D01*
X140099952Y-105215117D01*
X139970798Y-105037350D01*
X139970794Y-105037345D01*
X139792654Y-104859205D01*
X139792649Y-104859201D01*
X139588848Y-104711132D01*
X139588847Y-104711131D01*
X139588845Y-104711130D01*
X139509104Y-104670500D01*
X139364383Y-104596760D01*
X139124785Y-104518910D01*
X138875962Y-104479500D01*
X138624038Y-104479500D01*
X138499626Y-104499205D01*
X138375214Y-104518910D01*
X138135616Y-104596760D01*
X137911151Y-104711132D01*
X137707350Y-104859201D01*
X137707345Y-104859205D01*
X137529205Y-105037345D01*
X137529201Y-105037350D01*
X137381132Y-105241151D01*
X137266760Y-105465616D01*
X137188910Y-105705214D01*
X137177321Y-105778386D01*
X137149500Y-105954038D01*
X137149500Y-106205962D01*
X137152140Y-106222629D01*
X137143183Y-106291922D01*
X137098186Y-106345373D01*
X137031434Y-106366011D01*
X136964121Y-106347285D01*
X136960775Y-106345126D01*
X136879185Y-106290609D01*
X136879172Y-106290602D01*
X136733501Y-106230264D01*
X136733489Y-106230261D01*
X136578845Y-106199500D01*
X136578842Y-106199500D01*
X136421158Y-106199500D01*
X136421155Y-106199500D01*
X136266510Y-106230261D01*
X136266498Y-106230264D01*
X136120827Y-106290602D01*
X136120814Y-106290609D01*
X135989711Y-106378210D01*
X135989707Y-106378213D01*
X135878213Y-106489707D01*
X135878210Y-106489711D01*
X135790609Y-106620814D01*
X135790602Y-106620827D01*
X135730264Y-106766498D01*
X135730261Y-106766510D01*
X135699500Y-106921153D01*
X135699500Y-107078846D01*
X135730261Y-107233489D01*
X135730263Y-107233497D01*
X135740061Y-107257151D01*
X135749500Y-107304604D01*
X135749500Y-111637769D01*
X135729815Y-111704808D01*
X135713181Y-111725450D01*
X135184703Y-112253927D01*
X135144480Y-112280805D01*
X135120819Y-112290606D01*
X135120818Y-112290607D01*
X134989715Y-112378207D01*
X134989707Y-112378213D01*
X134878213Y-112489707D01*
X134878210Y-112489711D01*
X134790609Y-112620814D01*
X134790602Y-112620827D01*
X134730264Y-112766498D01*
X134730261Y-112766510D01*
X134699500Y-112921153D01*
X133255315Y-112921153D01*
X133241971Y-112902786D01*
X133097213Y-112758028D01*
X132931613Y-112637715D01*
X132931612Y-112637714D01*
X132931610Y-112637713D01*
X132852256Y-112597280D01*
X132749223Y-112544781D01*
X132554534Y-112481522D01*
X132379995Y-112453878D01*
X132352352Y-112449500D01*
X132147648Y-112449500D01*
X132123329Y-112453351D01*
X131945465Y-112481522D01*
X131750776Y-112544781D01*
X131568386Y-112637715D01*
X131402786Y-112758028D01*
X131258028Y-112902786D01*
X131137715Y-113068386D01*
X131044781Y-113250776D01*
X130981522Y-113445465D01*
X130949500Y-113647648D01*
X130949500Y-113852351D01*
X130981522Y-114054534D01*
X131044781Y-114249223D01*
X131097941Y-114353553D01*
X131137585Y-114431359D01*
X131137715Y-114431613D01*
X131258028Y-114597213D01*
X131402786Y-114741971D01*
X131523226Y-114829474D01*
X131568390Y-114862287D01*
X131684607Y-114921503D01*
X131750776Y-114955218D01*
X131750778Y-114955218D01*
X131750781Y-114955220D01*
X131854881Y-114989044D01*
X131911894Y-115007569D01*
X131969569Y-115047007D01*
X131996767Y-115111366D01*
X131984852Y-115180212D01*
X131937608Y-115231688D01*
X131873575Y-115249500D01*
X127624809Y-115249500D01*
X127557770Y-115229815D01*
X127512015Y-115177011D01*
X127502071Y-115107853D01*
X127531096Y-115044297D01*
X127586490Y-115007569D01*
X127749031Y-114954755D01*
X127931349Y-114861859D01*
X127975921Y-114829474D01*
X127296447Y-114150000D01*
X127302661Y-114150000D01*
X127404394Y-114122741D01*
X127495606Y-114070080D01*
X127570080Y-113995606D01*
X127622741Y-113904394D01*
X127650000Y-113802661D01*
X127650000Y-113796447D01*
X128329474Y-114475921D01*
X128361859Y-114431349D01*
X128454755Y-114249031D01*
X128517990Y-114054417D01*
X128550000Y-113852317D01*
X128550000Y-113647682D01*
X128517990Y-113445582D01*
X128454755Y-113250968D01*
X128361859Y-113068650D01*
X128329474Y-113024077D01*
X128329474Y-113024076D01*
X127650000Y-113703551D01*
X127650000Y-113697339D01*
X127622741Y-113595606D01*
X127570080Y-113504394D01*
X127495606Y-113429920D01*
X127404394Y-113377259D01*
X127302661Y-113350000D01*
X127296446Y-113350000D01*
X127975922Y-112670524D01*
X127975921Y-112670523D01*
X127931359Y-112638147D01*
X127931350Y-112638141D01*
X127749031Y-112545244D01*
X127554417Y-112482009D01*
X127352317Y-112450000D01*
X127147683Y-112450000D01*
X126945582Y-112482009D01*
X126750968Y-112545244D01*
X126568644Y-112638143D01*
X126524077Y-112670523D01*
X126524077Y-112670524D01*
X127203554Y-113350000D01*
X127197339Y-113350000D01*
X127095606Y-113377259D01*
X127004394Y-113429920D01*
X126929920Y-113504394D01*
X126877259Y-113595606D01*
X126850000Y-113697339D01*
X126850000Y-113703553D01*
X126170524Y-113024077D01*
X126170523Y-113024077D01*
X126138143Y-113068644D01*
X126045244Y-113250968D01*
X125982009Y-113445582D01*
X125950000Y-113647682D01*
X125950000Y-113852317D01*
X125982009Y-114054417D01*
X126045244Y-114249031D01*
X126138141Y-114431350D01*
X126138147Y-114431359D01*
X126170523Y-114475921D01*
X126170524Y-114475922D01*
X126850000Y-113796446D01*
X126850000Y-113802661D01*
X126877259Y-113904394D01*
X126929920Y-113995606D01*
X127004394Y-114070080D01*
X127095606Y-114122741D01*
X127197339Y-114150000D01*
X127203553Y-114150000D01*
X126524076Y-114829474D01*
X126568650Y-114861859D01*
X126750968Y-114954755D01*
X126913510Y-115007569D01*
X126971185Y-115047007D01*
X126998383Y-115111366D01*
X126986468Y-115180212D01*
X126939224Y-115231688D01*
X126875191Y-115249500D01*
X99362300Y-115249500D01*
X99295261Y-115229815D01*
X99249506Y-115177011D01*
X99239562Y-115107853D01*
X99268587Y-115044297D01*
X99296328Y-115020506D01*
X99316917Y-115007569D01*
X99391289Y-114960838D01*
X99602085Y-114792734D01*
X99792734Y-114602085D01*
X99960838Y-114391289D01*
X100104284Y-114162997D01*
X100221267Y-113920079D01*
X100310316Y-113665591D01*
X100370312Y-113402732D01*
X100400500Y-113134809D01*
X100400500Y-112865191D01*
X100370312Y-112597268D01*
X100340240Y-112465513D01*
X107049500Y-112465513D01*
X107049500Y-112654486D01*
X107079059Y-112841118D01*
X107137454Y-113020836D01*
X107195527Y-113134809D01*
X107223240Y-113189199D01*
X107334310Y-113342073D01*
X107467927Y-113475690D01*
X107620801Y-113586760D01*
X107689544Y-113621786D01*
X107789163Y-113672545D01*
X107789165Y-113672545D01*
X107789168Y-113672547D01*
X107885497Y-113703846D01*
X107968881Y-113730940D01*
X108155514Y-113760500D01*
X108155519Y-113760500D01*
X108344486Y-113760500D01*
X108531118Y-113730940D01*
X108710832Y-113672547D01*
X108879199Y-113586760D01*
X109032073Y-113475690D01*
X109165690Y-113342073D01*
X109276760Y-113189199D01*
X109362547Y-113020832D01*
X109420940Y-112841118D01*
X109432758Y-112766503D01*
X109450500Y-112654486D01*
X109450500Y-112465513D01*
X110049500Y-112465513D01*
X110049500Y-112654486D01*
X110079059Y-112841118D01*
X110137454Y-113020836D01*
X110195527Y-113134809D01*
X110223240Y-113189199D01*
X110334310Y-113342073D01*
X110467927Y-113475690D01*
X110620801Y-113586760D01*
X110689544Y-113621786D01*
X110789163Y-113672545D01*
X110789165Y-113672545D01*
X110789168Y-113672547D01*
X110885497Y-113703846D01*
X110968881Y-113730940D01*
X111155514Y-113760500D01*
X111155519Y-113760500D01*
X111344486Y-113760500D01*
X111531118Y-113730940D01*
X111710832Y-113672547D01*
X111879199Y-113586760D01*
X112032073Y-113475690D01*
X112165690Y-113342073D01*
X112276760Y-113189199D01*
X112362547Y-113020832D01*
X112420940Y-112841118D01*
X112432758Y-112766503D01*
X112450500Y-112654486D01*
X112450500Y-112465513D01*
X112422797Y-112290606D01*
X112420940Y-112278882D01*
X112396622Y-112204038D01*
X113399500Y-112204038D01*
X113399500Y-112455962D01*
X113430943Y-112654481D01*
X113438910Y-112704785D01*
X113516760Y-112944383D01*
X113631132Y-113168848D01*
X113779201Y-113372649D01*
X113779205Y-113372654D01*
X113957345Y-113550794D01*
X113957350Y-113550798D01*
X114115350Y-113665591D01*
X114161155Y-113698870D01*
X114303109Y-113771199D01*
X114385616Y-113813239D01*
X114385618Y-113813239D01*
X114385621Y-113813241D01*
X114625215Y-113891090D01*
X114874038Y-113930500D01*
X114874039Y-113930500D01*
X115125961Y-113930500D01*
X115125962Y-113930500D01*
X115374785Y-113891090D01*
X115614379Y-113813241D01*
X115838845Y-113698870D01*
X116042656Y-113550793D01*
X116220793Y-113372656D01*
X116368870Y-113168845D01*
X116483241Y-112944379D01*
X116561090Y-112704785D01*
X116600500Y-112455962D01*
X116600500Y-112204038D01*
X116561090Y-111955215D01*
X116483241Y-111715621D01*
X116483239Y-111715618D01*
X116483239Y-111715616D01*
X116390313Y-111533240D01*
X116368870Y-111491155D01*
X116349952Y-111465117D01*
X116220798Y-111287350D01*
X116220794Y-111287345D01*
X116115584Y-111182135D01*
X117399500Y-111182135D01*
X117399500Y-113477870D01*
X117399501Y-113477876D01*
X117405908Y-113537483D01*
X117456202Y-113672328D01*
X117456206Y-113672335D01*
X117542452Y-113787544D01*
X117542455Y-113787547D01*
X117657664Y-113873793D01*
X117657671Y-113873797D01*
X117792517Y-113924091D01*
X117792516Y-113924091D01*
X117799444Y-113924835D01*
X117852127Y-113930500D01*
X120147872Y-113930499D01*
X120207483Y-113924091D01*
X120342331Y-113873796D01*
X120457546Y-113787546D01*
X120543796Y-113672331D01*
X120549183Y-113657885D01*
X120570967Y-113599483D01*
X120594091Y-113537482D01*
X120597014Y-113510292D01*
X120600500Y-113477873D01*
X120600499Y-112290607D01*
X120600499Y-111182129D01*
X120600498Y-111182123D01*
X120600497Y-111182116D01*
X120594091Y-111122517D01*
X120589124Y-111109201D01*
X120543797Y-110987671D01*
X120543793Y-110987664D01*
X120457547Y-110872455D01*
X120457544Y-110872452D01*
X120342335Y-110786206D01*
X120342328Y-110786202D01*
X120207482Y-110735908D01*
X120207483Y-110735908D01*
X120147883Y-110729501D01*
X120147881Y-110729500D01*
X120147873Y-110729500D01*
X120147864Y-110729500D01*
X117852129Y-110729500D01*
X117852123Y-110729501D01*
X117792516Y-110735908D01*
X117657671Y-110786202D01*
X117657664Y-110786206D01*
X117542455Y-110872452D01*
X117542452Y-110872455D01*
X117456206Y-110987664D01*
X117456202Y-110987671D01*
X117405908Y-111122517D01*
X117399501Y-111182116D01*
X117399501Y-111182123D01*
X117399500Y-111182135D01*
X116115584Y-111182135D01*
X116042654Y-111109205D01*
X116042649Y-111109201D01*
X115838848Y-110961132D01*
X115838847Y-110961131D01*
X115838845Y-110961130D01*
X115710459Y-110895714D01*
X115614383Y-110846760D01*
X115374785Y-110768910D01*
X115125962Y-110729500D01*
X114874038Y-110729500D01*
X114749626Y-110749205D01*
X114625214Y-110768910D01*
X114385616Y-110846760D01*
X114161151Y-110961132D01*
X113957350Y-111109201D01*
X113957345Y-111109205D01*
X113779205Y-111287345D01*
X113779201Y-111287350D01*
X113631132Y-111491151D01*
X113516760Y-111715616D01*
X113438910Y-111955214D01*
X113438910Y-111955215D01*
X113399500Y-112204038D01*
X112396622Y-112204038D01*
X112362547Y-112099168D01*
X112362545Y-112099165D01*
X112362545Y-112099163D01*
X112317290Y-112010347D01*
X112276760Y-111930801D01*
X112165690Y-111777927D01*
X112032073Y-111644310D01*
X111879199Y-111533240D01*
X111710836Y-111447454D01*
X111531118Y-111389059D01*
X111344486Y-111359500D01*
X111344481Y-111359500D01*
X111155519Y-111359500D01*
X111155514Y-111359500D01*
X110968881Y-111389059D01*
X110789163Y-111447454D01*
X110620800Y-111533240D01*
X110533579Y-111596610D01*
X110467927Y-111644310D01*
X110467925Y-111644312D01*
X110467924Y-111644312D01*
X110334312Y-111777924D01*
X110334312Y-111777925D01*
X110334310Y-111777927D01*
X110291389Y-111837003D01*
X110223240Y-111930800D01*
X110137454Y-112099163D01*
X110079059Y-112278881D01*
X110049500Y-112465513D01*
X109450500Y-112465513D01*
X109420940Y-112278881D01*
X109393846Y-112195497D01*
X109362547Y-112099168D01*
X109362545Y-112099165D01*
X109362545Y-112099163D01*
X109317290Y-112010347D01*
X109276760Y-111930801D01*
X109165690Y-111777927D01*
X109032073Y-111644310D01*
X108879199Y-111533240D01*
X108710836Y-111447454D01*
X108531118Y-111389059D01*
X108344486Y-111359500D01*
X108344481Y-111359500D01*
X108155519Y-111359500D01*
X108155514Y-111359500D01*
X107968881Y-111389059D01*
X107789163Y-111447454D01*
X107620800Y-111533240D01*
X107533579Y-111596610D01*
X107467927Y-111644310D01*
X107467925Y-111644312D01*
X107467924Y-111644312D01*
X107334312Y-111777924D01*
X107334312Y-111777925D01*
X107334310Y-111777927D01*
X107291389Y-111837003D01*
X107223240Y-111930800D01*
X107137454Y-112099163D01*
X107079059Y-112278881D01*
X107049500Y-112465513D01*
X100340240Y-112465513D01*
X100310316Y-112334409D01*
X100221267Y-112079921D01*
X100104284Y-111837003D01*
X99960838Y-111608711D01*
X99792734Y-111397915D01*
X99602085Y-111207266D01*
X99391289Y-111039162D01*
X99162997Y-110895716D01*
X99162994Y-110895714D01*
X98920082Y-110778734D01*
X98665602Y-110689687D01*
X98665594Y-110689684D01*
X98468446Y-110644687D01*
X98402732Y-110629688D01*
X98402728Y-110629687D01*
X98402719Y-110629686D01*
X98134813Y-110599500D01*
X98134809Y-110599500D01*
X97865191Y-110599500D01*
X97865186Y-110599500D01*
X97597280Y-110629686D01*
X97597268Y-110629688D01*
X97334405Y-110689684D01*
X97334397Y-110689687D01*
X97079917Y-110778734D01*
X96837005Y-110895714D01*
X96608712Y-111039161D01*
X96397915Y-111207265D01*
X96207265Y-111397915D01*
X96039161Y-111608712D01*
X95979494Y-111703671D01*
X95927159Y-111749962D01*
X95858105Y-111760610D01*
X95794257Y-111732235D01*
X95755885Y-111673845D01*
X95750500Y-111637699D01*
X95750500Y-107302155D01*
X100560000Y-107302155D01*
X100560000Y-108000000D01*
X101584722Y-108000000D01*
X101540667Y-108076306D01*
X101510000Y-108190756D01*
X101510000Y-108309244D01*
X101540667Y-108423694D01*
X101584722Y-108500000D01*
X100560000Y-108500000D01*
X100560000Y-109197844D01*
X100566401Y-109257372D01*
X100566403Y-109257379D01*
X100616645Y-109392086D01*
X100616649Y-109392093D01*
X100702809Y-109507187D01*
X100702812Y-109507190D01*
X100817906Y-109593350D01*
X100817913Y-109593354D01*
X100952620Y-109643596D01*
X100952627Y-109643598D01*
X101012155Y-109649999D01*
X101012172Y-109650000D01*
X101710000Y-109650000D01*
X101710000Y-108625277D01*
X101786306Y-108669333D01*
X101900756Y-108700000D01*
X102019244Y-108700000D01*
X102133694Y-108669333D01*
X102210000Y-108625277D01*
X102210000Y-109650000D01*
X102907828Y-109650000D01*
X102907844Y-109649999D01*
X102967372Y-109643598D01*
X102967379Y-109643596D01*
X103102086Y-109593354D01*
X103102093Y-109593350D01*
X103217187Y-109507190D01*
X103217190Y-109507187D01*
X103303350Y-109392093D01*
X103303354Y-109392086D01*
X103333213Y-109312031D01*
X103375084Y-109256097D01*
X103440548Y-109231680D01*
X103508821Y-109246531D01*
X103537076Y-109267683D01*
X103587636Y-109318243D01*
X103587641Y-109318247D01*
X103731197Y-109422545D01*
X103765978Y-109447815D01*
X103866863Y-109499219D01*
X103962393Y-109547895D01*
X103962396Y-109547896D01*
X104067221Y-109581955D01*
X104172049Y-109616015D01*
X104389778Y-109650500D01*
X104389779Y-109650500D01*
X104610221Y-109650500D01*
X104610222Y-109650500D01*
X104827951Y-109616015D01*
X105037606Y-109547895D01*
X105234022Y-109447815D01*
X105412365Y-109318242D01*
X105568242Y-109162365D01*
X105697815Y-108984022D01*
X105797895Y-108787606D01*
X105866015Y-108577951D01*
X105900500Y-108360222D01*
X105900500Y-108215513D01*
X121799500Y-108215513D01*
X121799500Y-108404486D01*
X121829059Y-108591118D01*
X121887454Y-108770836D01*
X121952069Y-108897648D01*
X121973240Y-108939199D01*
X122084310Y-109092073D01*
X122217927Y-109225690D01*
X122370801Y-109336760D01*
X122450347Y-109377290D01*
X122539163Y-109422545D01*
X122539165Y-109422545D01*
X122539168Y-109422547D01*
X122635497Y-109453846D01*
X122718881Y-109480940D01*
X122905514Y-109510500D01*
X122905519Y-109510500D01*
X123094486Y-109510500D01*
X123281118Y-109480940D01*
X123460832Y-109422547D01*
X123629199Y-109336760D01*
X123782073Y-109225690D01*
X123915690Y-109092073D01*
X124026760Y-108939199D01*
X124112547Y-108770832D01*
X124170940Y-108591118D01*
X124185249Y-108500776D01*
X124200500Y-108404486D01*
X124200500Y-108215513D01*
X124170940Y-108028881D01*
X124125071Y-107887713D01*
X124112547Y-107849168D01*
X124112545Y-107849165D01*
X124112545Y-107849163D01*
X124042857Y-107712393D01*
X124026760Y-107680801D01*
X123915690Y-107527927D01*
X123782073Y-107394310D01*
X123629199Y-107283240D01*
X123594973Y-107265801D01*
X123460836Y-107197454D01*
X123281118Y-107139059D01*
X123094486Y-107109500D01*
X123094481Y-107109500D01*
X122905519Y-107109500D01*
X122905514Y-107109500D01*
X122718881Y-107139059D01*
X122539163Y-107197454D01*
X122370800Y-107283240D01*
X122295933Y-107337635D01*
X122217927Y-107394310D01*
X122217925Y-107394312D01*
X122217924Y-107394312D01*
X122084312Y-107527924D01*
X122084312Y-107527925D01*
X122084310Y-107527927D01*
X122039257Y-107589937D01*
X121973240Y-107680800D01*
X121887454Y-107849163D01*
X121829059Y-108028881D01*
X121799500Y-108215513D01*
X105900500Y-108215513D01*
X105900500Y-108139778D01*
X105866015Y-107922049D01*
X105826829Y-107801446D01*
X105797896Y-107712396D01*
X105797895Y-107712393D01*
X105726506Y-107572287D01*
X105697815Y-107515978D01*
X105681260Y-107493192D01*
X105568247Y-107337641D01*
X105568243Y-107337636D01*
X105412363Y-107181756D01*
X105412358Y-107181752D01*
X105234025Y-107052187D01*
X105234024Y-107052186D01*
X105234022Y-107052185D01*
X105171096Y-107020122D01*
X105037606Y-106952104D01*
X105037603Y-106952103D01*
X104827952Y-106883985D01*
X104719086Y-106866742D01*
X104610222Y-106849500D01*
X104389778Y-106849500D01*
X104317201Y-106860995D01*
X104172047Y-106883985D01*
X103962396Y-106952103D01*
X103962393Y-106952104D01*
X103765974Y-107052187D01*
X103587641Y-107181752D01*
X103587636Y-107181756D01*
X103537075Y-107232317D01*
X103475752Y-107265801D01*
X103406060Y-107260816D01*
X103350127Y-107218945D01*
X103333213Y-107187968D01*
X103303354Y-107107913D01*
X103303350Y-107107906D01*
X103217190Y-106992812D01*
X103217187Y-106992809D01*
X103102093Y-106906649D01*
X103102086Y-106906645D01*
X102967379Y-106856403D01*
X102967372Y-106856401D01*
X102907844Y-106850000D01*
X102210000Y-106850000D01*
X102210000Y-107874722D01*
X102133694Y-107830667D01*
X102019244Y-107800000D01*
X101900756Y-107800000D01*
X101786306Y-107830667D01*
X101710000Y-107874722D01*
X101710000Y-106850000D01*
X101012155Y-106850000D01*
X100952627Y-106856401D01*
X100952620Y-106856403D01*
X100817913Y-106906645D01*
X100817906Y-106906649D01*
X100702812Y-106992809D01*
X100702809Y-106992812D01*
X100616649Y-107107906D01*
X100616645Y-107107913D01*
X100566403Y-107242620D01*
X100566401Y-107242627D01*
X100560000Y-107302155D01*
X95750500Y-107302155D01*
X95750500Y-104845513D01*
X107049500Y-104845513D01*
X107049500Y-105034486D01*
X107079059Y-105221118D01*
X107137454Y-105400836D01*
X107212462Y-105548046D01*
X107223240Y-105569199D01*
X107334310Y-105722073D01*
X107467927Y-105855690D01*
X107620801Y-105966760D01*
X107700347Y-106007290D01*
X107789163Y-106052545D01*
X107789165Y-106052545D01*
X107789168Y-106052547D01*
X107885497Y-106083846D01*
X107968881Y-106110940D01*
X108155514Y-106140500D01*
X108155519Y-106140500D01*
X108344486Y-106140500D01*
X108531118Y-106110940D01*
X108710832Y-106052547D01*
X108879199Y-105966760D01*
X109032073Y-105855690D01*
X109165690Y-105722073D01*
X109276760Y-105569199D01*
X109362547Y-105400832D01*
X109420940Y-105221118D01*
X109436129Y-105125220D01*
X109450500Y-105034486D01*
X109450500Y-104845513D01*
X110049500Y-104845513D01*
X110049500Y-105034486D01*
X110079059Y-105221118D01*
X110137454Y-105400836D01*
X110212462Y-105548046D01*
X110223240Y-105569199D01*
X110334310Y-105722073D01*
X110467927Y-105855690D01*
X110620801Y-105966760D01*
X110700347Y-106007290D01*
X110789163Y-106052545D01*
X110789165Y-106052545D01*
X110789168Y-106052547D01*
X110885497Y-106083846D01*
X110968881Y-106110940D01*
X111155514Y-106140500D01*
X111155519Y-106140500D01*
X111344486Y-106140500D01*
X111531118Y-106110940D01*
X111710832Y-106052547D01*
X111879199Y-105966760D01*
X112032073Y-105855690D01*
X112165690Y-105722073D01*
X112276760Y-105569199D01*
X112362547Y-105400832D01*
X112420940Y-105221118D01*
X112436129Y-105125220D01*
X112450500Y-105034486D01*
X112450500Y-104845513D01*
X112420940Y-104658881D01*
X112375460Y-104518910D01*
X112362547Y-104479168D01*
X112362545Y-104479165D01*
X112362545Y-104479163D01*
X112276759Y-104310800D01*
X112165690Y-104157927D01*
X112032073Y-104024310D01*
X111879199Y-103913240D01*
X111710836Y-103827454D01*
X111531118Y-103769059D01*
X111344486Y-103739500D01*
X111344481Y-103739500D01*
X111155519Y-103739500D01*
X111155514Y-103739500D01*
X110968881Y-103769059D01*
X110789163Y-103827454D01*
X110620800Y-103913240D01*
X110533579Y-103976610D01*
X110467927Y-104024310D01*
X110467925Y-104024312D01*
X110467924Y-104024312D01*
X110334312Y-104157924D01*
X110334312Y-104157925D01*
X110334310Y-104157927D01*
X110286610Y-104223579D01*
X110223240Y-104310800D01*
X110137454Y-104479163D01*
X110079059Y-104658881D01*
X110049500Y-104845513D01*
X109450500Y-104845513D01*
X109420940Y-104658881D01*
X109375460Y-104518910D01*
X109362547Y-104479168D01*
X109362545Y-104479165D01*
X109362545Y-104479163D01*
X109276759Y-104310800D01*
X109165690Y-104157927D01*
X109032073Y-104024310D01*
X108879199Y-103913240D01*
X108710836Y-103827454D01*
X108531118Y-103769059D01*
X108344486Y-103739500D01*
X108344481Y-103739500D01*
X108155519Y-103739500D01*
X108155514Y-103739500D01*
X107968881Y-103769059D01*
X107789163Y-103827454D01*
X107620800Y-103913240D01*
X107533579Y-103976610D01*
X107467927Y-104024310D01*
X107467925Y-104024312D01*
X107467924Y-104024312D01*
X107334312Y-104157924D01*
X107334312Y-104157925D01*
X107334310Y-104157927D01*
X107286610Y-104223579D01*
X107223240Y-104310800D01*
X107137454Y-104479163D01*
X107079059Y-104658881D01*
X107049500Y-104845513D01*
X95750500Y-104845513D01*
X95750500Y-99742155D01*
X98500000Y-99742155D01*
X98500000Y-101040000D01*
X99780936Y-101040000D01*
X99769207Y-101068316D01*
X99740000Y-101215147D01*
X99740000Y-101364853D01*
X99769207Y-101511684D01*
X99780936Y-101540000D01*
X98500000Y-101540000D01*
X98500000Y-102837844D01*
X98506401Y-102897372D01*
X98506403Y-102897379D01*
X98556645Y-103032086D01*
X98556649Y-103032093D01*
X98642809Y-103147187D01*
X98642812Y-103147190D01*
X98757906Y-103233350D01*
X98757913Y-103233354D01*
X98892620Y-103283596D01*
X98892627Y-103283598D01*
X98952155Y-103289999D01*
X98952172Y-103290000D01*
X100250000Y-103290000D01*
X100250000Y-102009064D01*
X100278316Y-102020793D01*
X100425147Y-102050000D01*
X100574853Y-102050000D01*
X100721684Y-102020793D01*
X100750000Y-102009064D01*
X100750000Y-103290000D01*
X102047828Y-103290000D01*
X102047844Y-103289999D01*
X102107372Y-103283598D01*
X102107379Y-103283596D01*
X102242086Y-103233354D01*
X102242093Y-103233350D01*
X102357187Y-103147190D01*
X102357190Y-103147187D01*
X102443350Y-103032093D01*
X102443354Y-103032086D01*
X102493596Y-102897379D01*
X102493598Y-102897372D01*
X102499999Y-102837844D01*
X102500000Y-102837827D01*
X102500000Y-101540000D01*
X101219064Y-101540000D01*
X101230793Y-101511684D01*
X101260000Y-101364853D01*
X101260000Y-101215147D01*
X101230793Y-101068316D01*
X101219064Y-101040000D01*
X102500000Y-101040000D01*
X102500000Y-101022135D01*
X113399500Y-101022135D01*
X113399500Y-103317870D01*
X113399501Y-103317876D01*
X113405908Y-103377483D01*
X113456202Y-103512328D01*
X113456206Y-103512335D01*
X113542452Y-103627544D01*
X113542455Y-103627547D01*
X113657664Y-103713793D01*
X113657671Y-103713797D01*
X113792517Y-103764091D01*
X113792516Y-103764091D01*
X113799444Y-103764835D01*
X113852127Y-103770500D01*
X116147872Y-103770499D01*
X116207483Y-103764091D01*
X116259934Y-103744527D01*
X116329625Y-103739543D01*
X116390948Y-103773027D01*
X116489707Y-103871786D01*
X116489711Y-103871789D01*
X116620814Y-103959390D01*
X116620827Y-103959397D01*
X116766498Y-104019735D01*
X116766503Y-104019737D01*
X116921153Y-104050499D01*
X116921156Y-104050500D01*
X116921158Y-104050500D01*
X117078844Y-104050500D01*
X117078845Y-104050499D01*
X117233497Y-104019737D01*
X117379179Y-103959394D01*
X117510289Y-103871789D01*
X117564430Y-103817648D01*
X124829500Y-103817648D01*
X124829500Y-104022352D01*
X124833878Y-104049995D01*
X124861522Y-104224534D01*
X124924781Y-104419223D01*
X124975575Y-104518910D01*
X125015241Y-104596759D01*
X125017715Y-104601613D01*
X125138028Y-104767213D01*
X125282786Y-104911971D01*
X125437749Y-105024556D01*
X125448390Y-105032287D01*
X125539840Y-105078883D01*
X125541080Y-105079515D01*
X125591876Y-105127490D01*
X125608671Y-105195311D01*
X125586134Y-105261446D01*
X125541080Y-105300485D01*
X125448386Y-105347715D01*
X125282786Y-105468028D01*
X125138028Y-105612786D01*
X125017715Y-105778386D01*
X124924781Y-105960776D01*
X124861522Y-106155465D01*
X124829500Y-106357648D01*
X124829500Y-106562351D01*
X124861522Y-106764534D01*
X124924781Y-106959223D01*
X124983094Y-107073666D01*
X125016413Y-107139059D01*
X125017715Y-107141613D01*
X125138028Y-107307213D01*
X125282786Y-107451971D01*
X125387330Y-107527925D01*
X125448390Y-107572287D01*
X125539840Y-107618883D01*
X125541080Y-107619515D01*
X125591876Y-107667490D01*
X125608671Y-107735311D01*
X125586134Y-107801446D01*
X125541080Y-107840485D01*
X125448386Y-107887715D01*
X125282786Y-108008028D01*
X125138028Y-108152786D01*
X125017715Y-108318386D01*
X124924781Y-108500776D01*
X124861522Y-108695465D01*
X124829500Y-108897648D01*
X124829500Y-109102351D01*
X124861522Y-109304534D01*
X124924781Y-109499223D01*
X124949582Y-109547896D01*
X125001606Y-109649999D01*
X125017715Y-109681613D01*
X125138028Y-109847213D01*
X125282786Y-109991971D01*
X125437749Y-110104556D01*
X125448390Y-110112287D01*
X125564607Y-110171503D01*
X125630776Y-110205218D01*
X125630778Y-110205218D01*
X125630781Y-110205220D01*
X125735137Y-110239127D01*
X125825465Y-110268477D01*
X125926557Y-110284488D01*
X126027648Y-110300500D01*
X126027649Y-110300500D01*
X126232351Y-110300500D01*
X126232352Y-110300500D01*
X126434534Y-110268477D01*
X126629219Y-110205220D01*
X126811610Y-110112287D01*
X126904590Y-110044732D01*
X126977213Y-109991971D01*
X126977215Y-109991968D01*
X126977219Y-109991966D01*
X127121966Y-109847219D01*
X127121968Y-109847215D01*
X127121971Y-109847213D01*
X127191402Y-109751648D01*
X127242287Y-109681610D01*
X127335220Y-109499219D01*
X127398477Y-109304534D01*
X127430500Y-109102352D01*
X127430500Y-108897648D01*
X127398477Y-108695466D01*
X127335220Y-108500781D01*
X127335218Y-108500778D01*
X127335218Y-108500776D01*
X127286155Y-108404486D01*
X127242287Y-108318390D01*
X127234556Y-108307749D01*
X127121971Y-108152786D01*
X126977213Y-108008028D01*
X126811614Y-107887715D01*
X126805006Y-107884348D01*
X126718917Y-107840483D01*
X126668123Y-107792511D01*
X126651328Y-107724690D01*
X126673865Y-107658555D01*
X126718917Y-107619516D01*
X126811610Y-107572287D01*
X126872671Y-107527924D01*
X126977213Y-107451971D01*
X126977215Y-107451968D01*
X126977219Y-107451966D01*
X127121966Y-107307219D01*
X127121968Y-107307215D01*
X127121971Y-107307213D01*
X127213122Y-107181752D01*
X127242287Y-107141610D01*
X127335220Y-106959219D01*
X127398477Y-106764534D01*
X127430500Y-106562352D01*
X127430500Y-106357648D01*
X127406474Y-106205958D01*
X127398477Y-106155465D01*
X127365036Y-106052545D01*
X127335220Y-105960781D01*
X127335218Y-105960778D01*
X127335218Y-105960776D01*
X127281672Y-105855687D01*
X127242287Y-105778390D01*
X127201372Y-105722075D01*
X127121971Y-105612786D01*
X126977213Y-105468028D01*
X126811614Y-105347715D01*
X126805006Y-105344348D01*
X126718917Y-105300483D01*
X126668123Y-105252511D01*
X126651328Y-105184690D01*
X126673865Y-105118555D01*
X126718917Y-105079516D01*
X126811610Y-105032287D01*
X126832770Y-105016913D01*
X126977213Y-104911971D01*
X126977215Y-104911968D01*
X126977219Y-104911966D01*
X127121966Y-104767219D01*
X127124650Y-104763524D01*
X127155100Y-104721615D01*
X127210429Y-104678949D01*
X127255418Y-104670500D01*
X128557770Y-104670500D01*
X128624809Y-104690185D01*
X128645451Y-104706819D01*
X130877048Y-106938415D01*
X130877049Y-106938416D01*
X130931442Y-106992809D01*
X130981585Y-107042952D01*
X131104498Y-107125080D01*
X131104511Y-107125087D01*
X131241082Y-107181656D01*
X131241087Y-107181658D01*
X131241091Y-107181658D01*
X131241092Y-107181659D01*
X131386079Y-107210500D01*
X131386082Y-107210500D01*
X132624582Y-107210500D01*
X132691621Y-107230185D01*
X132724900Y-107261615D01*
X132758028Y-107307212D01*
X132758032Y-107307217D01*
X132902786Y-107451971D01*
X133007330Y-107527925D01*
X133068390Y-107572287D01*
X133159840Y-107618883D01*
X133161080Y-107619515D01*
X133211876Y-107667490D01*
X133228671Y-107735311D01*
X133206134Y-107801446D01*
X133161080Y-107840485D01*
X133068386Y-107887715D01*
X132902786Y-108008028D01*
X132758028Y-108152786D01*
X132637715Y-108318386D01*
X132544781Y-108500776D01*
X132481522Y-108695465D01*
X132449500Y-108897648D01*
X132449500Y-109102351D01*
X132481522Y-109304534D01*
X132544781Y-109499223D01*
X132569582Y-109547896D01*
X132621606Y-109649999D01*
X132637715Y-109681613D01*
X132758028Y-109847213D01*
X132902786Y-109991971D01*
X133057749Y-110104556D01*
X133068390Y-110112287D01*
X133184607Y-110171503D01*
X133250776Y-110205218D01*
X133250778Y-110205218D01*
X133250781Y-110205220D01*
X133355137Y-110239127D01*
X133445465Y-110268477D01*
X133546557Y-110284488D01*
X133647648Y-110300500D01*
X133647649Y-110300500D01*
X133852351Y-110300500D01*
X133852352Y-110300500D01*
X134054534Y-110268477D01*
X134249219Y-110205220D01*
X134431610Y-110112287D01*
X134524590Y-110044732D01*
X134597213Y-109991971D01*
X134597215Y-109991968D01*
X134597219Y-109991966D01*
X134741966Y-109847219D01*
X134741968Y-109847215D01*
X134741971Y-109847213D01*
X134811402Y-109751648D01*
X134862287Y-109681610D01*
X134955220Y-109499219D01*
X135018477Y-109304534D01*
X135050500Y-109102352D01*
X135050500Y-108897648D01*
X135018477Y-108695466D01*
X134955220Y-108500781D01*
X134955218Y-108500778D01*
X134955218Y-108500776D01*
X134906155Y-108404486D01*
X134862287Y-108318390D01*
X134854556Y-108307749D01*
X134741971Y-108152786D01*
X134597213Y-108008028D01*
X134431614Y-107887715D01*
X134425006Y-107884348D01*
X134338917Y-107840483D01*
X134288123Y-107792511D01*
X134271328Y-107724690D01*
X134293865Y-107658555D01*
X134338917Y-107619516D01*
X134431610Y-107572287D01*
X134492671Y-107527924D01*
X134597213Y-107451971D01*
X134597215Y-107451968D01*
X134597219Y-107451966D01*
X134741966Y-107307219D01*
X134741968Y-107307215D01*
X134741971Y-107307213D01*
X134833122Y-107181752D01*
X134862287Y-107141610D01*
X134955220Y-106959219D01*
X135018477Y-106764534D01*
X135050500Y-106562352D01*
X135050500Y-106357648D01*
X135026474Y-106205958D01*
X135018477Y-106155465D01*
X134985036Y-106052545D01*
X134955220Y-105960781D01*
X134955218Y-105960778D01*
X134955218Y-105960776D01*
X134901672Y-105855687D01*
X134862287Y-105778390D01*
X134821372Y-105722075D01*
X134741971Y-105612786D01*
X134597213Y-105468028D01*
X134431614Y-105347715D01*
X134425006Y-105344348D01*
X134338917Y-105300483D01*
X134288123Y-105252511D01*
X134271328Y-105184690D01*
X134293865Y-105118555D01*
X134338917Y-105079516D01*
X134431610Y-105032287D01*
X134452770Y-105016913D01*
X134597213Y-104911971D01*
X134597215Y-104911968D01*
X134597219Y-104911966D01*
X134741966Y-104767219D01*
X134741968Y-104767215D01*
X134741971Y-104767213D01*
X134812236Y-104670500D01*
X134862287Y-104601610D01*
X134955220Y-104419219D01*
X135018477Y-104224534D01*
X135050500Y-104022352D01*
X135050500Y-103817648D01*
X135019016Y-103618872D01*
X144249500Y-103618872D01*
X144249500Y-103881127D01*
X144267750Y-104019738D01*
X144283730Y-104141116D01*
X144329197Y-104310801D01*
X144351602Y-104394418D01*
X144351605Y-104394428D01*
X144451953Y-104636690D01*
X144451958Y-104636700D01*
X144583075Y-104863803D01*
X144742718Y-105071851D01*
X144742726Y-105071860D01*
X144928140Y-105257274D01*
X144928148Y-105257281D01*
X145136196Y-105416924D01*
X145363299Y-105548041D01*
X145363309Y-105548046D01*
X145605571Y-105648394D01*
X145605581Y-105648398D01*
X145858884Y-105716270D01*
X146118880Y-105750500D01*
X146118887Y-105750500D01*
X146381113Y-105750500D01*
X146381120Y-105750500D01*
X146641116Y-105716270D01*
X146894419Y-105648398D01*
X147136697Y-105548043D01*
X147363803Y-105416924D01*
X147571851Y-105257282D01*
X147571855Y-105257277D01*
X147571860Y-105257274D01*
X147757274Y-105071860D01*
X147757277Y-105071855D01*
X147757282Y-105071851D01*
X147916924Y-104863803D01*
X148048043Y-104636697D01*
X148064586Y-104596760D01*
X148148394Y-104394428D01*
X148148398Y-104394419D01*
X148216270Y-104141116D01*
X148250500Y-103881120D01*
X148250500Y-103618880D01*
X148216270Y-103358884D01*
X148148398Y-103105581D01*
X148117958Y-103032093D01*
X148048046Y-102863309D01*
X148048041Y-102863299D01*
X147916924Y-102636196D01*
X147757281Y-102428148D01*
X147757274Y-102428140D01*
X147571860Y-102242726D01*
X147571851Y-102242718D01*
X147363803Y-102083075D01*
X147136700Y-101951958D01*
X147136690Y-101951953D01*
X146894428Y-101851605D01*
X146894421Y-101851603D01*
X146894419Y-101851602D01*
X146641116Y-101783730D01*
X146583339Y-101776123D01*
X146381127Y-101749500D01*
X146381120Y-101749500D01*
X146118880Y-101749500D01*
X146118872Y-101749500D01*
X145887772Y-101779926D01*
X145858884Y-101783730D01*
X145788658Y-101802547D01*
X145605581Y-101851602D01*
X145605571Y-101851605D01*
X145363309Y-101951953D01*
X145363299Y-101951958D01*
X145136196Y-102083075D01*
X144928148Y-102242718D01*
X144742718Y-102428148D01*
X144583075Y-102636196D01*
X144451958Y-102863299D01*
X144451953Y-102863309D01*
X144351605Y-103105571D01*
X144351602Y-103105581D01*
X144289582Y-103337046D01*
X144283730Y-103358885D01*
X144249500Y-103618872D01*
X135019016Y-103618872D01*
X135018477Y-103615466D01*
X134955220Y-103420781D01*
X134955218Y-103420778D01*
X134955218Y-103420776D01*
X134912555Y-103337046D01*
X134862287Y-103238390D01*
X134843585Y-103212649D01*
X134741971Y-103072786D01*
X134597213Y-102928028D01*
X134431614Y-102807715D01*
X134385822Y-102784383D01*
X134338917Y-102760483D01*
X134288123Y-102712511D01*
X134271328Y-102644690D01*
X134293865Y-102578555D01*
X134338917Y-102539516D01*
X134431610Y-102492287D01*
X134452770Y-102476913D01*
X134597213Y-102371971D01*
X134597215Y-102371968D01*
X134597219Y-102371966D01*
X134741966Y-102227219D01*
X134741968Y-102227215D01*
X134741971Y-102227213D01*
X134846691Y-102083076D01*
X134862287Y-102061610D01*
X134955220Y-101879219D01*
X135018477Y-101684534D01*
X135050500Y-101482352D01*
X135050500Y-101277648D01*
X135030414Y-101150832D01*
X135018477Y-101075465D01*
X134971214Y-100930005D01*
X134955220Y-100880781D01*
X134955218Y-100880778D01*
X134955218Y-100880776D01*
X134906155Y-100784486D01*
X134862287Y-100698390D01*
X134842023Y-100670499D01*
X134741971Y-100532786D01*
X134597213Y-100388028D01*
X134431613Y-100267715D01*
X134431612Y-100267714D01*
X134431610Y-100267713D01*
X134374653Y-100238691D01*
X134249223Y-100174781D01*
X134054534Y-100111522D01*
X133879995Y-100083878D01*
X133852352Y-100079500D01*
X133647648Y-100079500D01*
X133623329Y-100083351D01*
X133445465Y-100111522D01*
X133250776Y-100174781D01*
X133068386Y-100267715D01*
X132902786Y-100388028D01*
X132758028Y-100532786D01*
X132637715Y-100698386D01*
X132544781Y-100880776D01*
X132481522Y-101075465D01*
X132449500Y-101277648D01*
X132449500Y-101482351D01*
X132481522Y-101684534D01*
X132544781Y-101879223D01*
X132581842Y-101951958D01*
X132631797Y-102050000D01*
X132637715Y-102061613D01*
X132758028Y-102227213D01*
X132902786Y-102371971D01*
X133057749Y-102484556D01*
X133068390Y-102492287D01*
X133156511Y-102537187D01*
X133161080Y-102539515D01*
X133211876Y-102587490D01*
X133228671Y-102655311D01*
X133206134Y-102721446D01*
X133161080Y-102760485D01*
X133068386Y-102807715D01*
X132902786Y-102928028D01*
X132758028Y-103072786D01*
X132637715Y-103238386D01*
X132544781Y-103420776D01*
X132481522Y-103615465D01*
X132456567Y-103773027D01*
X132449500Y-103817648D01*
X132449500Y-104022352D01*
X132453878Y-104049995D01*
X132481522Y-104224534D01*
X132544781Y-104419223D01*
X132595575Y-104518910D01*
X132635241Y-104596759D01*
X132637715Y-104601613D01*
X132758028Y-104767213D01*
X132902786Y-104911971D01*
X133057749Y-105024556D01*
X133068390Y-105032287D01*
X133159840Y-105078883D01*
X133161080Y-105079515D01*
X133211876Y-105127490D01*
X133228671Y-105195311D01*
X133206134Y-105261446D01*
X133161080Y-105300485D01*
X133068386Y-105347715D01*
X132902786Y-105468028D01*
X132758032Y-105612782D01*
X132758028Y-105612787D01*
X132724900Y-105658385D01*
X132669571Y-105701051D01*
X132624582Y-105709500D01*
X131822229Y-105709500D01*
X131755190Y-105689815D01*
X131734548Y-105673181D01*
X129398421Y-103337052D01*
X129398414Y-103337046D01*
X129324729Y-103287812D01*
X129324729Y-103287813D01*
X129275491Y-103254913D01*
X129138917Y-103198343D01*
X129138907Y-103198340D01*
X128993920Y-103169500D01*
X128993918Y-103169500D01*
X127255418Y-103169500D01*
X127188379Y-103149815D01*
X127155100Y-103118385D01*
X127121971Y-103072787D01*
X127121967Y-103072782D01*
X126977217Y-102928032D01*
X126977212Y-102928028D01*
X126940325Y-102901228D01*
X126897659Y-102845898D01*
X126891680Y-102776285D01*
X126924286Y-102714490D01*
X126985124Y-102680133D01*
X126999956Y-102677620D01*
X127037379Y-102673596D01*
X127172086Y-102623354D01*
X127172093Y-102623350D01*
X127287187Y-102537190D01*
X127287190Y-102537187D01*
X127373350Y-102422093D01*
X127373354Y-102422086D01*
X127423596Y-102287379D01*
X127423598Y-102287372D01*
X127429999Y-102227844D01*
X127430000Y-102227827D01*
X127430000Y-101630000D01*
X126445686Y-101630000D01*
X126450080Y-101625606D01*
X126502741Y-101534394D01*
X126530000Y-101432661D01*
X126530000Y-101327339D01*
X126502741Y-101225606D01*
X126450080Y-101134394D01*
X126445686Y-101130000D01*
X127430000Y-101130000D01*
X127430000Y-100532172D01*
X127429999Y-100532155D01*
X127423598Y-100472627D01*
X127423596Y-100472620D01*
X127373354Y-100337913D01*
X127373350Y-100337906D01*
X127287190Y-100222812D01*
X127287187Y-100222809D01*
X127172093Y-100136649D01*
X127172086Y-100136645D01*
X127037379Y-100086403D01*
X127037372Y-100086401D01*
X126977844Y-100080000D01*
X126380000Y-100080000D01*
X126380000Y-101064314D01*
X126375606Y-101059920D01*
X126284394Y-101007259D01*
X126182661Y-100980000D01*
X126077339Y-100980000D01*
X125975606Y-101007259D01*
X125884394Y-101059920D01*
X125880000Y-101064314D01*
X125880000Y-100080000D01*
X125282155Y-100080000D01*
X125222627Y-100086401D01*
X125222620Y-100086403D01*
X125087913Y-100136645D01*
X125087906Y-100136649D01*
X124972812Y-100222809D01*
X124972809Y-100222812D01*
X124886649Y-100337906D01*
X124886645Y-100337913D01*
X124836403Y-100472620D01*
X124836401Y-100472627D01*
X124830000Y-100532155D01*
X124830000Y-101130000D01*
X125814314Y-101130000D01*
X125809920Y-101134394D01*
X125757259Y-101225606D01*
X125730000Y-101327339D01*
X125730000Y-101432661D01*
X125757259Y-101534394D01*
X125809920Y-101625606D01*
X125814314Y-101630000D01*
X124830000Y-101630000D01*
X124830000Y-102227844D01*
X124836401Y-102287372D01*
X124836403Y-102287379D01*
X124886645Y-102422086D01*
X124886649Y-102422093D01*
X124972809Y-102537187D01*
X124972812Y-102537190D01*
X125087906Y-102623350D01*
X125087913Y-102623354D01*
X125222620Y-102673596D01*
X125260043Y-102677620D01*
X125324595Y-102704358D01*
X125364443Y-102761750D01*
X125366937Y-102831576D01*
X125331285Y-102891665D01*
X125319675Y-102901227D01*
X125282789Y-102928026D01*
X125282782Y-102928032D01*
X125138028Y-103072786D01*
X125017715Y-103238386D01*
X124924781Y-103420776D01*
X124861522Y-103615465D01*
X124836567Y-103773027D01*
X124829500Y-103817648D01*
X117564430Y-103817648D01*
X117621789Y-103760289D01*
X117709394Y-103629179D01*
X117710071Y-103627546D01*
X117757792Y-103512335D01*
X117769737Y-103483497D01*
X117771746Y-103473395D01*
X117804128Y-103411484D01*
X117864842Y-103376907D01*
X117934612Y-103380644D01*
X117966249Y-103397264D01*
X118146500Y-103528222D01*
X118161155Y-103538870D01*
X118304184Y-103611747D01*
X118385616Y-103653239D01*
X118385618Y-103653239D01*
X118385621Y-103653241D01*
X118625215Y-103731090D01*
X118874038Y-103770500D01*
X118874039Y-103770500D01*
X119125961Y-103770500D01*
X119125962Y-103770500D01*
X119374785Y-103731090D01*
X119614379Y-103653241D01*
X119838845Y-103538870D01*
X120042656Y-103390793D01*
X120220793Y-103212656D01*
X120368870Y-103008845D01*
X120483241Y-102784379D01*
X120561090Y-102544785D01*
X120600500Y-102295962D01*
X120600500Y-102044038D01*
X120561090Y-101795215D01*
X120483241Y-101555621D01*
X120483239Y-101555618D01*
X120483239Y-101555616D01*
X120420590Y-101432661D01*
X120368870Y-101331155D01*
X120329995Y-101277648D01*
X120220798Y-101127350D01*
X120220794Y-101127345D01*
X120042654Y-100949205D01*
X120042649Y-100949201D01*
X119838848Y-100801132D01*
X119838847Y-100801131D01*
X119838845Y-100801130D01*
X119698085Y-100729409D01*
X119642588Y-100701132D01*
X119614383Y-100686761D01*
X119614382Y-100686760D01*
X119614379Y-100686759D01*
X119374785Y-100608910D01*
X119290200Y-100595513D01*
X121799500Y-100595513D01*
X121799500Y-100784486D01*
X121829059Y-100971118D01*
X121887454Y-101150836D01*
X121925552Y-101225606D01*
X121973240Y-101319199D01*
X122084310Y-101472073D01*
X122217927Y-101605690D01*
X122370801Y-101716760D01*
X122435057Y-101749500D01*
X122539163Y-101802545D01*
X122539165Y-101802545D01*
X122539168Y-101802547D01*
X122635497Y-101833846D01*
X122718881Y-101860940D01*
X122905514Y-101890500D01*
X122905519Y-101890500D01*
X123094486Y-101890500D01*
X123281118Y-101860940D01*
X123309857Y-101851602D01*
X123460832Y-101802547D01*
X123629199Y-101716760D01*
X123782073Y-101605690D01*
X123915690Y-101472073D01*
X124026760Y-101319199D01*
X124112547Y-101150832D01*
X124170940Y-100971118D01*
X124173976Y-100951950D01*
X124200500Y-100784486D01*
X124200500Y-100595513D01*
X124193014Y-100548249D01*
X124170940Y-100408881D01*
X124143846Y-100325497D01*
X124112547Y-100229168D01*
X124112545Y-100229165D01*
X124112545Y-100229163D01*
X124052604Y-100111523D01*
X124026760Y-100060801D01*
X123915690Y-99907927D01*
X123782073Y-99774310D01*
X123629199Y-99663240D01*
X123460836Y-99577454D01*
X123281118Y-99519059D01*
X123094486Y-99489500D01*
X123094481Y-99489500D01*
X122905519Y-99489500D01*
X122905514Y-99489500D01*
X122718881Y-99519059D01*
X122539163Y-99577454D01*
X122370800Y-99663240D01*
X122344117Y-99682627D01*
X122217927Y-99774310D01*
X122217925Y-99774312D01*
X122217924Y-99774312D01*
X122084312Y-99907924D01*
X122084312Y-99907925D01*
X122084310Y-99907927D01*
X122036610Y-99973579D01*
X121973240Y-100060800D01*
X121887454Y-100229163D01*
X121829059Y-100408881D01*
X121799500Y-100595513D01*
X119290200Y-100595513D01*
X119125962Y-100569500D01*
X118874038Y-100569500D01*
X118749626Y-100589205D01*
X118625214Y-100608910D01*
X118385616Y-100686760D01*
X118161151Y-100801132D01*
X117957347Y-100949203D01*
X117955032Y-100951181D01*
X117953971Y-100951656D01*
X117953402Y-100952070D01*
X117953315Y-100951950D01*
X117891270Y-100979752D01*
X117822184Y-100969315D01*
X117769709Y-100923184D01*
X117750500Y-100856891D01*
X117750500Y-96112228D01*
X117770185Y-96045189D01*
X117786814Y-96024552D01*
X119039230Y-94772135D01*
X137149500Y-94772135D01*
X137149500Y-97067870D01*
X137149501Y-97067876D01*
X137155908Y-97127483D01*
X137206202Y-97262328D01*
X137206206Y-97262335D01*
X137292452Y-97377544D01*
X137292455Y-97377547D01*
X137407664Y-97463793D01*
X137407671Y-97463797D01*
X137542517Y-97514091D01*
X137542516Y-97514091D01*
X137549444Y-97514835D01*
X137602127Y-97520500D01*
X139897872Y-97520499D01*
X139957483Y-97514091D01*
X140092331Y-97463796D01*
X140207546Y-97377546D01*
X140293796Y-97262331D01*
X140344091Y-97127483D01*
X140344666Y-97122135D01*
X144249500Y-97122135D01*
X144249500Y-100217870D01*
X144249501Y-100217876D01*
X144255908Y-100277483D01*
X144306202Y-100412328D01*
X144306206Y-100412335D01*
X144392452Y-100527544D01*
X144392455Y-100527547D01*
X144507664Y-100613793D01*
X144507671Y-100613797D01*
X144642517Y-100664091D01*
X144642516Y-100664091D01*
X144649444Y-100664835D01*
X144702127Y-100670500D01*
X147797872Y-100670499D01*
X147857483Y-100664091D01*
X147992331Y-100613796D01*
X148107546Y-100527546D01*
X148193796Y-100412331D01*
X148244091Y-100277483D01*
X148250500Y-100217873D01*
X148250499Y-97122128D01*
X148244091Y-97062517D01*
X148193796Y-96927669D01*
X148193795Y-96927668D01*
X148193793Y-96927664D01*
X148107547Y-96812455D01*
X148107544Y-96812452D01*
X147992335Y-96726206D01*
X147992328Y-96726202D01*
X147857482Y-96675908D01*
X147857483Y-96675908D01*
X147797883Y-96669501D01*
X147797881Y-96669500D01*
X147797873Y-96669500D01*
X147797864Y-96669500D01*
X144702129Y-96669500D01*
X144702123Y-96669501D01*
X144642516Y-96675908D01*
X144507671Y-96726202D01*
X144507664Y-96726206D01*
X144392455Y-96812452D01*
X144392452Y-96812455D01*
X144306206Y-96927664D01*
X144306202Y-96927671D01*
X144255908Y-97062517D01*
X144251282Y-97105549D01*
X144249501Y-97122123D01*
X144249500Y-97122135D01*
X140344666Y-97122135D01*
X140350500Y-97067873D01*
X140350499Y-94772128D01*
X140344091Y-94712517D01*
X140340439Y-94702726D01*
X140293797Y-94577671D01*
X140293793Y-94577664D01*
X140207547Y-94462455D01*
X140207544Y-94462452D01*
X140092335Y-94376206D01*
X140092328Y-94376202D01*
X139957482Y-94325908D01*
X139957483Y-94325908D01*
X139897883Y-94319501D01*
X139897881Y-94319500D01*
X139897873Y-94319500D01*
X139897864Y-94319500D01*
X137602129Y-94319500D01*
X137602123Y-94319501D01*
X137542516Y-94325908D01*
X137407671Y-94376202D01*
X137407664Y-94376206D01*
X137292455Y-94462452D01*
X137292452Y-94462455D01*
X137206206Y-94577664D01*
X137206202Y-94577671D01*
X137155908Y-94712517D01*
X137149501Y-94772116D01*
X137149501Y-94772123D01*
X137149500Y-94772135D01*
X119039230Y-94772135D01*
X119565295Y-94246070D01*
X119605519Y-94219193D01*
X119629179Y-94209394D01*
X119760289Y-94121789D01*
X119871789Y-94010289D01*
X119959394Y-93879179D01*
X120019737Y-93733497D01*
X120050500Y-93578842D01*
X120050500Y-93421158D01*
X120050500Y-93421155D01*
X120050499Y-93421153D01*
X120024454Y-93290216D01*
X120019737Y-93266503D01*
X120019735Y-93266498D01*
X119959397Y-93120827D01*
X119959390Y-93120814D01*
X119871789Y-92989711D01*
X119871786Y-92989707D01*
X119760292Y-92878213D01*
X119760288Y-92878210D01*
X119629185Y-92790609D01*
X119629172Y-92790602D01*
X119483501Y-92730264D01*
X119483489Y-92730261D01*
X119328845Y-92699500D01*
X119328842Y-92699500D01*
X119171158Y-92699500D01*
X119171155Y-92699500D01*
X119016510Y-92730261D01*
X119016498Y-92730264D01*
X118870827Y-92790602D01*
X118870814Y-92790609D01*
X118739711Y-92878210D01*
X118739707Y-92878213D01*
X118628213Y-92989707D01*
X118628207Y-92989715D01*
X118540607Y-93120818D01*
X118540605Y-93120822D01*
X118530805Y-93144480D01*
X118503927Y-93184704D01*
X116417050Y-95271580D01*
X116417044Y-95271588D01*
X116367812Y-95345268D01*
X116367813Y-95345269D01*
X116334921Y-95394496D01*
X116334914Y-95394508D01*
X116278342Y-95531086D01*
X116278340Y-95531092D01*
X116249500Y-95676079D01*
X116249500Y-100445500D01*
X116229815Y-100512539D01*
X116177011Y-100558294D01*
X116125500Y-100569500D01*
X113852129Y-100569500D01*
X113852123Y-100569501D01*
X113792516Y-100575908D01*
X113657671Y-100626202D01*
X113657664Y-100626206D01*
X113542455Y-100712452D01*
X113542452Y-100712455D01*
X113456206Y-100827664D01*
X113456202Y-100827671D01*
X113405908Y-100962517D01*
X113399501Y-101022116D01*
X113399500Y-101022135D01*
X102500000Y-101022135D01*
X102500000Y-99742172D01*
X102499999Y-99742155D01*
X102493598Y-99682627D01*
X102493596Y-99682620D01*
X102443354Y-99547913D01*
X102443350Y-99547906D01*
X102357190Y-99432812D01*
X102357187Y-99432809D01*
X102242093Y-99346649D01*
X102242086Y-99346645D01*
X102107379Y-99296403D01*
X102107372Y-99296401D01*
X102047844Y-99290000D01*
X100750000Y-99290000D01*
X100750000Y-100570935D01*
X100721684Y-100559207D01*
X100574853Y-100530000D01*
X100425147Y-100530000D01*
X100278316Y-100559207D01*
X100250000Y-100570935D01*
X100250000Y-99290000D01*
X98952155Y-99290000D01*
X98892627Y-99296401D01*
X98892620Y-99296403D01*
X98757913Y-99346645D01*
X98757906Y-99346649D01*
X98642812Y-99432809D01*
X98642809Y-99432812D01*
X98556649Y-99547906D01*
X98556645Y-99547913D01*
X98506403Y-99682620D01*
X98506401Y-99682627D01*
X98500000Y-99742155D01*
X95750500Y-99742155D01*
X95750500Y-96078872D01*
X98499500Y-96078872D01*
X98499500Y-96341127D01*
X98509258Y-96415241D01*
X98533730Y-96601116D01*
X98553771Y-96675909D01*
X98601602Y-96854418D01*
X98601605Y-96854428D01*
X98701953Y-97096690D01*
X98701958Y-97096700D01*
X98833075Y-97323803D01*
X98992718Y-97531851D01*
X98992726Y-97531860D01*
X99178140Y-97717274D01*
X99178148Y-97717281D01*
X99386196Y-97876924D01*
X99613299Y-98008041D01*
X99613309Y-98008046D01*
X99855571Y-98108394D01*
X99855581Y-98108398D01*
X100108884Y-98176270D01*
X100368880Y-98210500D01*
X100368887Y-98210500D01*
X100631113Y-98210500D01*
X100631120Y-98210500D01*
X100891116Y-98176270D01*
X101144419Y-98108398D01*
X101386697Y-98008043D01*
X101613803Y-97876924D01*
X101821851Y-97717282D01*
X101821855Y-97717277D01*
X101821860Y-97717274D01*
X102007274Y-97531860D01*
X102007277Y-97531855D01*
X102007282Y-97531851D01*
X102166924Y-97323803D01*
X102298043Y-97096697D01*
X102398398Y-96854419D01*
X102466270Y-96601116D01*
X102500500Y-96341120D01*
X102500500Y-96078880D01*
X102466270Y-95818884D01*
X102398398Y-95565581D01*
X102384110Y-95531086D01*
X102298046Y-95323309D01*
X102298041Y-95323299D01*
X102166923Y-95096195D01*
X102158245Y-95084886D01*
X102158244Y-95084885D01*
X102104059Y-95014270D01*
X108500000Y-95014270D01*
X108500000Y-95250375D01*
X108536934Y-95483570D01*
X108609897Y-95708125D01*
X108717087Y-95918497D01*
X108777338Y-96001427D01*
X108777340Y-96001428D01*
X109517037Y-95261731D01*
X109534075Y-95325316D01*
X109599901Y-95439330D01*
X109692993Y-95532422D01*
X109807007Y-95598248D01*
X109870590Y-95615285D01*
X109130893Y-96354981D01*
X109213828Y-96415237D01*
X109424197Y-96522425D01*
X109648752Y-96595388D01*
X109648751Y-96595388D01*
X109881948Y-96632323D01*
X110118052Y-96632323D01*
X110351247Y-96595388D01*
X110575802Y-96522425D01*
X110786163Y-96415241D01*
X110786169Y-96415237D01*
X110869104Y-96354981D01*
X110869105Y-96354981D01*
X110129408Y-95615285D01*
X110192993Y-95598248D01*
X110307007Y-95532422D01*
X110400099Y-95439330D01*
X110465925Y-95325316D01*
X110482962Y-95261732D01*
X111222658Y-96001428D01*
X111222658Y-96001427D01*
X111282914Y-95918492D01*
X111282918Y-95918486D01*
X111390102Y-95708125D01*
X111463065Y-95483570D01*
X111500000Y-95250375D01*
X111500000Y-95014270D01*
X111463065Y-94781075D01*
X111390102Y-94556520D01*
X111282914Y-94346151D01*
X111222658Y-94263217D01*
X111222658Y-94263216D01*
X110482962Y-95002913D01*
X110465925Y-94939330D01*
X110400099Y-94825316D01*
X110307007Y-94732224D01*
X110192993Y-94666398D01*
X110129409Y-94649360D01*
X110869105Y-93909663D01*
X110869104Y-93909661D01*
X110786174Y-93849410D01*
X110575802Y-93742220D01*
X110351247Y-93669257D01*
X110351248Y-93669257D01*
X110118052Y-93632323D01*
X109881948Y-93632323D01*
X109648752Y-93669257D01*
X109424197Y-93742220D01*
X109213830Y-93849407D01*
X109130894Y-93909663D01*
X109870591Y-94649360D01*
X109807007Y-94666398D01*
X109692993Y-94732224D01*
X109599901Y-94825316D01*
X109534075Y-94939330D01*
X109517037Y-95002914D01*
X108777340Y-94263217D01*
X108717084Y-94346153D01*
X108609897Y-94556520D01*
X108536934Y-94781075D01*
X108500000Y-95014270D01*
X102104059Y-95014270D01*
X102007281Y-94888148D01*
X102007274Y-94888140D01*
X101821860Y-94702726D01*
X101821851Y-94702718D01*
X101613803Y-94543075D01*
X101386700Y-94411958D01*
X101386690Y-94411953D01*
X101144428Y-94311605D01*
X101144421Y-94311603D01*
X101144419Y-94311602D01*
X100891116Y-94243730D01*
X100833339Y-94236123D01*
X100631127Y-94209500D01*
X100631120Y-94209500D01*
X100368880Y-94209500D01*
X100368872Y-94209500D01*
X100137772Y-94239926D01*
X100108884Y-94243730D01*
X99855581Y-94311602D01*
X99855571Y-94311605D01*
X99613309Y-94411953D01*
X99613299Y-94411958D01*
X99386196Y-94543075D01*
X99178148Y-94702718D01*
X98992718Y-94888148D01*
X98833075Y-95096196D01*
X98701958Y-95323299D01*
X98701953Y-95323309D01*
X98601605Y-95565571D01*
X98601602Y-95565581D01*
X98571994Y-95676082D01*
X98533730Y-95818885D01*
X98499500Y-96078872D01*
X95750500Y-96078872D01*
X95750500Y-90862300D01*
X95770185Y-90795261D01*
X95822989Y-90749506D01*
X95892147Y-90739562D01*
X95955703Y-90768587D01*
X95979493Y-90796327D01*
X96039162Y-90891289D01*
X96087685Y-90952135D01*
X96198317Y-91090864D01*
X96207266Y-91102085D01*
X96397915Y-91292734D01*
X96608711Y-91460838D01*
X96837003Y-91604284D01*
X97079921Y-91721267D01*
X97269799Y-91787708D01*
X97334397Y-91810312D01*
X97334405Y-91810315D01*
X97334408Y-91810315D01*
X97334409Y-91810316D01*
X97597268Y-91870312D01*
X97865187Y-91900499D01*
X97865188Y-91900500D01*
X97865191Y-91900500D01*
X98134812Y-91900500D01*
X98134812Y-91900499D01*
X98402732Y-91870312D01*
X98665591Y-91810316D01*
X98920079Y-91721267D01*
X99162997Y-91604284D01*
X99391289Y-91460838D01*
X99602085Y-91292734D01*
X99792734Y-91102085D01*
X99960838Y-90891289D01*
X100104284Y-90662997D01*
X100221267Y-90420079D01*
X100310316Y-90165591D01*
X100370312Y-89902732D01*
X100400500Y-89634809D01*
X100400500Y-89365191D01*
X100370312Y-89097268D01*
X100367388Y-89084458D01*
X108499500Y-89084458D01*
X108499500Y-91180193D01*
X108499501Y-91180199D01*
X108505908Y-91239806D01*
X108556202Y-91374651D01*
X108556206Y-91374658D01*
X108642452Y-91489867D01*
X108642455Y-91489870D01*
X108757664Y-91576116D01*
X108757671Y-91576120D01*
X108892517Y-91626414D01*
X108892516Y-91626414D01*
X108899444Y-91627158D01*
X108952127Y-91632823D01*
X111047872Y-91632822D01*
X111107483Y-91626414D01*
X111242331Y-91576119D01*
X111357546Y-91489869D01*
X111443796Y-91374654D01*
X111494091Y-91239806D01*
X111500500Y-91180196D01*
X111500499Y-90618872D01*
X118749500Y-90618872D01*
X118749500Y-90881127D01*
X118763130Y-90984648D01*
X118783730Y-91141116D01*
X118840259Y-91352085D01*
X118851602Y-91394418D01*
X118851605Y-91394428D01*
X118951953Y-91636690D01*
X118951958Y-91636700D01*
X119083075Y-91863803D01*
X119242718Y-92071851D01*
X119242726Y-92071860D01*
X119428140Y-92257274D01*
X119428148Y-92257281D01*
X119636196Y-92416924D01*
X119863299Y-92548041D01*
X119863309Y-92548046D01*
X120105571Y-92648394D01*
X120105581Y-92648398D01*
X120358884Y-92716270D01*
X120607188Y-92748960D01*
X120618864Y-92750498D01*
X120618880Y-92750500D01*
X120618887Y-92750500D01*
X120881113Y-92750500D01*
X120881120Y-92750500D01*
X121141116Y-92716270D01*
X121394419Y-92648398D01*
X121571340Y-92575114D01*
X121636690Y-92548046D01*
X121636691Y-92548045D01*
X121636697Y-92548043D01*
X121863803Y-92416924D01*
X122071851Y-92257282D01*
X122071855Y-92257277D01*
X122071860Y-92257274D01*
X122257274Y-92071860D01*
X122257277Y-92071855D01*
X122257282Y-92071851D01*
X122416924Y-91863803D01*
X122548043Y-91636697D01*
X122549649Y-91632821D01*
X122620886Y-91460838D01*
X122648398Y-91394419D01*
X122716270Y-91141116D01*
X122750500Y-90881120D01*
X122750500Y-90618880D01*
X122750499Y-90618872D01*
X123749500Y-90618872D01*
X123749500Y-90881127D01*
X123763130Y-90984648D01*
X123783730Y-91141116D01*
X123840259Y-91352085D01*
X123851602Y-91394418D01*
X123851605Y-91394428D01*
X123951953Y-91636690D01*
X123951958Y-91636700D01*
X124083075Y-91863803D01*
X124242718Y-92071851D01*
X124242726Y-92071860D01*
X124428140Y-92257274D01*
X124428148Y-92257281D01*
X124636196Y-92416924D01*
X124863299Y-92548041D01*
X124863309Y-92548046D01*
X125105571Y-92648394D01*
X125105581Y-92648398D01*
X125358884Y-92716270D01*
X125607188Y-92748960D01*
X125618864Y-92750498D01*
X125618880Y-92750500D01*
X125618887Y-92750500D01*
X125881113Y-92750500D01*
X125881120Y-92750500D01*
X126141116Y-92716270D01*
X126394419Y-92648398D01*
X126571340Y-92575114D01*
X126636690Y-92548046D01*
X126636691Y-92548045D01*
X126636697Y-92548043D01*
X126863803Y-92416924D01*
X127071851Y-92257282D01*
X127071855Y-92257277D01*
X127071860Y-92257274D01*
X127257274Y-92071860D01*
X127257277Y-92071855D01*
X127257282Y-92071851D01*
X127416924Y-91863803D01*
X127548043Y-91636697D01*
X127549649Y-91632821D01*
X127620886Y-91460838D01*
X127648398Y-91394419D01*
X127716270Y-91141116D01*
X127750500Y-90881120D01*
X127750500Y-90618880D01*
X127716270Y-90358884D01*
X127648398Y-90105581D01*
X127648394Y-90105571D01*
X127548046Y-89863309D01*
X127548041Y-89863299D01*
X127416924Y-89636196D01*
X127273066Y-89448719D01*
X127257282Y-89428149D01*
X127257281Y-89428148D01*
X127257274Y-89428140D01*
X127071860Y-89242726D01*
X127071851Y-89242718D01*
X127018963Y-89202135D01*
X128749500Y-89202135D01*
X128749500Y-92297870D01*
X128749501Y-92297876D01*
X128755908Y-92357483D01*
X128806202Y-92492328D01*
X128806206Y-92492335D01*
X128892452Y-92607544D01*
X128892455Y-92607547D01*
X129007664Y-92693793D01*
X129007671Y-92693797D01*
X129142517Y-92744091D01*
X129142516Y-92744091D01*
X129149444Y-92744835D01*
X129202127Y-92750500D01*
X132297872Y-92750499D01*
X132357483Y-92744091D01*
X132492331Y-92693796D01*
X132607546Y-92607546D01*
X132693796Y-92492331D01*
X132744091Y-92357483D01*
X132750500Y-92297873D01*
X132750499Y-90952135D01*
X136797000Y-90952135D01*
X136797000Y-93047870D01*
X136797001Y-93047876D01*
X136803408Y-93107483D01*
X136853702Y-93242328D01*
X136853706Y-93242335D01*
X136939952Y-93357544D01*
X136939955Y-93357547D01*
X137055164Y-93443793D01*
X137055171Y-93443797D01*
X137190017Y-93494091D01*
X137190016Y-93494091D01*
X137196944Y-93494835D01*
X137249627Y-93500500D01*
X139250372Y-93500499D01*
X139309983Y-93494091D01*
X139444831Y-93443796D01*
X139560046Y-93357546D01*
X139646296Y-93242331D01*
X139656690Y-93214460D01*
X139698560Y-93158527D01*
X139764023Y-93134108D01*
X139832297Y-93148958D01*
X139845746Y-93157465D01*
X140028462Y-93290217D01*
X140160599Y-93357544D01*
X140232244Y-93394049D01*
X140449751Y-93464721D01*
X140449752Y-93464721D01*
X140449755Y-93464722D01*
X140675646Y-93500500D01*
X140675647Y-93500500D01*
X140904353Y-93500500D01*
X140904354Y-93500500D01*
X141130245Y-93464722D01*
X141130248Y-93464721D01*
X141130249Y-93464721D01*
X141347755Y-93394049D01*
X141347755Y-93394048D01*
X141347758Y-93394048D01*
X141551538Y-93290217D01*
X141736566Y-93155786D01*
X141898286Y-92994066D01*
X141959992Y-92909134D01*
X142015319Y-92866470D01*
X142084932Y-92860491D01*
X142146727Y-92893096D01*
X142160626Y-92909135D01*
X142222097Y-92993741D01*
X142222097Y-92993742D01*
X142383757Y-93155402D01*
X142568723Y-93289788D01*
X142772429Y-93393582D01*
X142989871Y-93464234D01*
X143080000Y-93478509D01*
X143080000Y-92490747D01*
X143117708Y-92512518D01*
X143257591Y-92550000D01*
X143402409Y-92550000D01*
X143542292Y-92512518D01*
X143580000Y-92490747D01*
X143580000Y-93478508D01*
X143670128Y-93464234D01*
X143887570Y-93393582D01*
X144091276Y-93289788D01*
X144276242Y-93155402D01*
X144437902Y-92993742D01*
X144572288Y-92808776D01*
X144676082Y-92605070D01*
X144746734Y-92387628D01*
X144768532Y-92250000D01*
X143820748Y-92250000D01*
X143842518Y-92212292D01*
X143880000Y-92072409D01*
X143880000Y-91927591D01*
X143842518Y-91787708D01*
X143820748Y-91750000D01*
X144768532Y-91750000D01*
X144746734Y-91612371D01*
X144676082Y-91394929D01*
X144572288Y-91191223D01*
X144437902Y-91006257D01*
X144276242Y-90844597D01*
X144091276Y-90710211D01*
X143887568Y-90606417D01*
X143670124Y-90535765D01*
X143580000Y-90521490D01*
X143580000Y-91509252D01*
X143542292Y-91487482D01*
X143402409Y-91450000D01*
X143257591Y-91450000D01*
X143117708Y-91487482D01*
X143080000Y-91509252D01*
X143080000Y-90521490D01*
X143079999Y-90521490D01*
X142989875Y-90535765D01*
X142772431Y-90606417D01*
X142568723Y-90710211D01*
X142383757Y-90844597D01*
X142222097Y-91006257D01*
X142160627Y-91090864D01*
X142105297Y-91133529D01*
X142035684Y-91139508D01*
X141973889Y-91106902D01*
X141959991Y-91090864D01*
X141898286Y-91005934D01*
X141736566Y-90844214D01*
X141551538Y-90709783D01*
X141473636Y-90670090D01*
X141347755Y-90605950D01*
X141130248Y-90535278D01*
X140944812Y-90505908D01*
X140904354Y-90499500D01*
X140675646Y-90499500D01*
X140635188Y-90505908D01*
X140449753Y-90535278D01*
X140449750Y-90535278D01*
X140232244Y-90605950D01*
X140028461Y-90709783D01*
X139845759Y-90842525D01*
X139779952Y-90866005D01*
X139711898Y-90850180D01*
X139663203Y-90800074D01*
X139656690Y-90785538D01*
X139646296Y-90757669D01*
X139646293Y-90757664D01*
X139560047Y-90642455D01*
X139560044Y-90642452D01*
X139444835Y-90556206D01*
X139444828Y-90556202D01*
X139309982Y-90505908D01*
X139309983Y-90505908D01*
X139250383Y-90499501D01*
X139250381Y-90499500D01*
X139250373Y-90499500D01*
X139250364Y-90499500D01*
X137249629Y-90499500D01*
X137249623Y-90499501D01*
X137190016Y-90505908D01*
X137055171Y-90556202D01*
X137055164Y-90556206D01*
X136939955Y-90642452D01*
X136939952Y-90642455D01*
X136853706Y-90757664D01*
X136853702Y-90757671D01*
X136803408Y-90892517D01*
X136797001Y-90952116D01*
X136797000Y-90952135D01*
X132750499Y-90952135D01*
X132750499Y-90749506D01*
X132750499Y-89202129D01*
X132750498Y-89202123D01*
X132750497Y-89202116D01*
X132744091Y-89142517D01*
X132727214Y-89097268D01*
X132693797Y-89007671D01*
X132693793Y-89007664D01*
X132607547Y-88892455D01*
X132607544Y-88892452D01*
X132492335Y-88806206D01*
X132492328Y-88806202D01*
X132357482Y-88755908D01*
X132357483Y-88755908D01*
X132297883Y-88749501D01*
X132297881Y-88749500D01*
X132297873Y-88749500D01*
X132297864Y-88749500D01*
X129202129Y-88749500D01*
X129202123Y-88749501D01*
X129142516Y-88755908D01*
X129007671Y-88806202D01*
X129007664Y-88806206D01*
X128892455Y-88892452D01*
X128892452Y-88892455D01*
X128806206Y-89007664D01*
X128806202Y-89007671D01*
X128755908Y-89142517D01*
X128749501Y-89202116D01*
X128749501Y-89202123D01*
X128749500Y-89202135D01*
X127018963Y-89202135D01*
X126863803Y-89083075D01*
X126636700Y-88951958D01*
X126636690Y-88951953D01*
X126394428Y-88851605D01*
X126394421Y-88851603D01*
X126394419Y-88851602D01*
X126141116Y-88783730D01*
X126073098Y-88774775D01*
X125881127Y-88749500D01*
X125881120Y-88749500D01*
X125618880Y-88749500D01*
X125618872Y-88749500D01*
X125387772Y-88779926D01*
X125358884Y-88783730D01*
X125105581Y-88851602D01*
X125105571Y-88851605D01*
X124863309Y-88951953D01*
X124863299Y-88951958D01*
X124636196Y-89083075D01*
X124428148Y-89242718D01*
X124242718Y-89428148D01*
X124083075Y-89636196D01*
X123951958Y-89863299D01*
X123951953Y-89863309D01*
X123851605Y-90105571D01*
X123851602Y-90105581D01*
X123835523Y-90165591D01*
X123783730Y-90358885D01*
X123749500Y-90618872D01*
X122750499Y-90618872D01*
X122716270Y-90358884D01*
X122648398Y-90105581D01*
X122648394Y-90105571D01*
X122548046Y-89863309D01*
X122548041Y-89863299D01*
X122416924Y-89636196D01*
X122273066Y-89448719D01*
X122257282Y-89428149D01*
X122257281Y-89428148D01*
X122257274Y-89428140D01*
X122071860Y-89242726D01*
X122071851Y-89242718D01*
X121863803Y-89083075D01*
X121636700Y-88951958D01*
X121636690Y-88951953D01*
X121394428Y-88851605D01*
X121394421Y-88851603D01*
X121394419Y-88851602D01*
X121141116Y-88783730D01*
X121073098Y-88774775D01*
X120881127Y-88749500D01*
X120881120Y-88749500D01*
X120618880Y-88749500D01*
X120618872Y-88749500D01*
X120387772Y-88779926D01*
X120358884Y-88783730D01*
X120105581Y-88851602D01*
X120105571Y-88851605D01*
X119863309Y-88951953D01*
X119863299Y-88951958D01*
X119636196Y-89083075D01*
X119428148Y-89242718D01*
X119242718Y-89428148D01*
X119083075Y-89636196D01*
X118951958Y-89863299D01*
X118951953Y-89863309D01*
X118851605Y-90105571D01*
X118851602Y-90105581D01*
X118835523Y-90165591D01*
X118783730Y-90358885D01*
X118749500Y-90618872D01*
X111500499Y-90618872D01*
X111500499Y-90105581D01*
X111500499Y-89084452D01*
X111500498Y-89084446D01*
X111500497Y-89084439D01*
X111494091Y-89024840D01*
X111487687Y-89007671D01*
X111443797Y-88889994D01*
X111443793Y-88889987D01*
X111357547Y-88774778D01*
X111357544Y-88774775D01*
X111242335Y-88688529D01*
X111242328Y-88688525D01*
X111107482Y-88638231D01*
X111107483Y-88638231D01*
X111047883Y-88631824D01*
X111047881Y-88631823D01*
X111047873Y-88631823D01*
X111047864Y-88631823D01*
X108952129Y-88631823D01*
X108952123Y-88631824D01*
X108892516Y-88638231D01*
X108757671Y-88688525D01*
X108757664Y-88688529D01*
X108642455Y-88774775D01*
X108642452Y-88774778D01*
X108556206Y-88889987D01*
X108556202Y-88889994D01*
X108505908Y-89024840D01*
X108499648Y-89083075D01*
X108499501Y-89084446D01*
X108499500Y-89084458D01*
X100367388Y-89084458D01*
X100310316Y-88834409D01*
X100221267Y-88579921D01*
X100143278Y-88417975D01*
X100104285Y-88337005D01*
X100099960Y-88330122D01*
X99960838Y-88108711D01*
X99792734Y-87897915D01*
X99602085Y-87707266D01*
X99391289Y-87539162D01*
X99296327Y-87479493D01*
X99250037Y-87427159D01*
X99239389Y-87358106D01*
X99267764Y-87294257D01*
X99326153Y-87255885D01*
X99362300Y-87250500D01*
X147895254Y-87250500D01*
X147962293Y-87270185D01*
G37*
%TD.AperFunction*%
%TD*%
M02*
