%TF.GenerationSoftware,KiCad,Pcbnew,9.0.7*%
%TF.CreationDate,2026-03-02T22:20:35+05:30*%
%TF.ProjectId,DCmotorSpeedController,44436d6f-746f-4725-9370-656564436f6e,rev?*%
%TF.SameCoordinates,Original*%
%TF.FileFunction,Soldermask,Bot*%
%TF.FilePolarity,Negative*%
%FSLAX46Y46*%
G04 Gerber Fmt 4.6, Leading zero omitted, Abs format (unit mm)*
G04 Created by KiCad (PCBNEW 9.0.7) date 2026-03-02 22:20:35*
%MOMM*%
%LPD*%
G01*
G04 APERTURE LIST*
%ADD10C,1.400000*%
%ADD11O,1.400000X1.400000*%
%ADD12R,1.800000X1.800000*%
%ADD13C,1.800000*%
%ADD14C,3.800000*%
%ADD15R,3.000000X3.000000*%
%ADD16C,3.000000*%
%ADD17C,1.600000*%
%ADD18R,2.200000X2.200000*%
%ADD19O,2.200000X2.200000*%
%ADD20R,1.905000X2.000000*%
%ADD21O,1.905000X2.000000*%
%ADD22R,1.600000X1.600000*%
%ADD23O,1.600000X1.600000*%
%ADD24R,2.000000X2.000000*%
%ADD25C,2.000000*%
G04 APERTURE END LIST*
D10*
%TO.C,R3*%
X108250000Y-104940000D03*
D11*
X108250000Y-112560000D03*
%TD*%
D12*
%TO.C,D4*%
X101960000Y-108250000D03*
D13*
X104500000Y-108250000D03*
%TD*%
D14*
%TO.C,REF\u002A\u002A*%
X98000000Y-113000000D03*
%TD*%
%TO.C,REF\u002A\u002A*%
X98000000Y-89500000D03*
%TD*%
D15*
%TO.C,J1*%
X100500000Y-101290000D03*
D16*
X100500000Y-96210000D03*
%TD*%
D17*
%TO.C,C2*%
X138500000Y-109000000D03*
X138500000Y-114000000D03*
%TD*%
%TO.C,C1*%
X132250000Y-113750000D03*
X127250000Y-113750000D03*
%TD*%
D18*
%TO.C,D3*%
X138750000Y-95920000D03*
D19*
X138750000Y-106080000D03*
%TD*%
D10*
%TO.C,R2*%
X123000000Y-108310000D03*
D11*
X123000000Y-100690000D03*
%TD*%
D20*
%TO.C,Q1*%
X138250000Y-92000000D03*
D21*
X140790000Y-92000000D03*
X143330000Y-92000000D03*
%TD*%
D22*
%TO.C,U1*%
X126130000Y-101380000D03*
D23*
X126130000Y-103920000D03*
X126130000Y-106460000D03*
X126130000Y-109000000D03*
X133750000Y-109000000D03*
X133750000Y-106460000D03*
X133750000Y-103920000D03*
X133750000Y-101380000D03*
%TD*%
D18*
%TO.C,D2*%
X119000000Y-112330000D03*
D19*
X119000000Y-102170000D03*
%TD*%
D24*
%TO.C,C3*%
X110000000Y-90132323D03*
D25*
X110000000Y-95132323D03*
%TD*%
D15*
%TO.C,RV1*%
X130750000Y-90750000D03*
D16*
X125750000Y-90750000D03*
X120750000Y-90750000D03*
%TD*%
D15*
%TO.C,J2*%
X146250000Y-98670000D03*
D16*
X146250000Y-103750000D03*
%TD*%
D10*
%TO.C,R1*%
X111250000Y-104940000D03*
D11*
X111250000Y-112560000D03*
%TD*%
D14*
%TO.C,REF\u002A\u002A*%
X149000000Y-113000000D03*
%TD*%
%TO.C,REF\u002A\u002A*%
X148750000Y-89750000D03*
%TD*%
D18*
%TO.C,D1*%
X115000000Y-102170000D03*
D19*
X115000000Y-112330000D03*
%TD*%
M02*
